<svg xmlns="http://www.w3.org/2000/svg"><symbol clip-rule="evenodd" fill-rule="evenodd" stroke-linejoin="round" stroke-miterlimit="2" id="icon-admin-columns-1" viewBox="0 0 1080 1080"><path d="M412.67 214.69c0-19.028-17.028-34.476-38.002-34.476H70.648c-20.975 0-38.003 15.448-38.003 34.476V490.5c0 19.028 17.028 34.477 38.003 34.477h304.02c20.974 0 38.002-15.449 38.002-34.477V214.69z" fill="currentColor" transform="matrix(2.8419 0 0 3.1326 -92.784 -564.54)"/></symbol><symbol clip-rule="evenodd" fill-rule="evenodd" stroke-linejoin="round" stroke-miterlimit="2" id="icon-admin-columns-2" viewBox="0 0 1080 1080"><path d="M412.67 211.5c0-17.266-34.056-31.284-76.005-31.284h-228.01c-41.948 0-76.005 14.018-76.005 31.284v282.2c0 17.266 34.057 31.284 76.005 31.284h228.01c41.949 0 76.005-14.018 76.005-31.284V211.5z" fill="currentColor" transform="matrix(1.2894 0 0 3.1326 547.9 -564.54)"/><path d="M412.67 211.5c0-17.266-34.056-31.284-76.005-31.284h-228.01c-41.948 0-76.005 14.018-76.005 31.284v282.2c0 17.266 34.057 31.284 76.005 31.284h228.01c41.949 0 76.005-14.018 76.005-31.284V211.5z" fill="currentColor" transform="matrix(1.2894 0 0 3.1326 -42.096 -564.54)"/></symbol><symbol clip-rule="evenodd" fill-rule="evenodd" stroke-linejoin="round" stroke-miterlimit="2" id="icon-admin-columns-3" viewBox="0 0 1080 1080"><path d="M412.67 198.95c0-10.337-34.056-18.728-76.005-18.728h-228.01c-41.948 0-76.005 8.391-76.005 18.728v307.31c0 10.336 34.057 18.728 76.005 18.728h228.01c41.949 0 76.005-8.392 76.005-18.728V198.95z" fill="currentColor" transform="matrix(.77188 0 0 3.1326 368.13 -564.54)"/><path d="M412.67 198.95c0-10.337-34.056-18.728-76.005-18.728h-228.01c-41.948 0-76.005 8.391-76.005 18.728v307.31c0 10.336 34.057 18.728 76.005 18.728h228.01c41.949 0 76.005-8.392 76.005-18.728V198.95z" fill="currentColor" transform="matrix(.77188 0 0 3.1326 761.47 -564.54)"/><path d="M412.67 198.95c0-10.337-34.056-18.728-76.005-18.728h-228.01c-41.948 0-76.005 8.391-76.005 18.728v307.31c0 10.336 34.057 18.728 76.005 18.728h228.01c41.949 0 76.005-8.392 76.005-18.728V198.95z" fill="currentColor" transform="matrix(.77188 0 0 3.1326 -25.2 -564.54)"/></symbol><symbol clip-rule="evenodd" fill-rule="evenodd" stroke-linejoin="round" stroke-miterlimit="2" id="icon-admin-columns-4" viewBox="0 0 1080 1080"><path d="M412.67 192.67c0-6.871-34.056-12.449-76.005-12.449h-228.01c-41.948 0-76.005 5.578-76.005 12.449v319.86c0 6.871 34.057 12.45 76.005 12.45h228.01c41.949 0 76.005-5.579 76.005-12.45V192.67z" fill="currentColor" transform="matrix(.51312 0 0 3.1326 278.25 -564.54)"/><path d="M412.67 192.67c0-6.871-34.056-12.449-76.005-12.449h-228.01c-41.948 0-76.005 5.578-76.005 12.449v319.86c0 6.871 34.057 12.45 76.005 12.45h228.01c41.949 0 76.005-5.579 76.005-12.45V192.67z" fill="currentColor" transform="matrix(.51312 0 0 3.1326 868.25 -564.54)"/><path d="M412.67 192.67c0-6.871-34.056-12.449-76.005-12.449h-228.01c-41.948 0-76.005 5.578-76.005 12.449v319.86c0 6.871 34.057 12.45 76.005 12.45h228.01c41.949 0 76.005-5.579 76.005-12.45V192.67z" fill="currentColor" transform="matrix(.51312 0 0 3.1326 -16.753 -564.54)"/><path d="M412.67 192.67c0-6.871-34.056-12.449-76.005-12.449h-228.01c-41.948 0-76.005 5.578-76.005 12.449v319.86c0 6.871 34.057 12.45 76.005 12.45h228.01c41.949 0 76.005-5.579 76.005-12.45V192.67z" fill="currentColor" transform="matrix(.51312 0 0 3.1326 573.25 -564.54)"/></symbol><symbol clip-rule="evenodd" fill-rule="evenodd" stroke-linejoin="round" stroke-miterlimit="2" id="icon-admin-columns-5" viewBox="0 0 1080 1080"><path d="M831.78 249.24c0-6.899-53.785-12.5-120.03-12.5H471.69c-66.248 0-120.03 5.601-120.03 12.5v372.07c0 6.899 53.784 12.5 120.03 12.5h240.06c66.248 0 120.03-5.601 120.03-12.5V249.24z" fill="currentColor" transform="matrix(.28326 0 0 2.7199 -99.606 -643.91)"/><path d="M831.78 249.24c0-6.899-53.785-12.5-120.03-12.5H471.69c-66.248 0-120.03 5.601-120.03 12.5v372.07c0 6.899 53.784 12.5 120.03 12.5h240.06c66.248 0 120.03-5.601 120.03-12.5V249.24z" fill="currentColor" transform="matrix(.28326 0 0 2.7199 136.39 -643.91)"/><path d="M831.78 249.24c0-6.899-53.785-12.5-120.03-12.5H471.69c-66.248 0-120.03 5.601-120.03 12.5v372.07c0 6.899 53.784 12.5 120.03 12.5h240.06c66.248 0 120.03-5.601 120.03-12.5V249.24z" fill="currentColor" transform="matrix(.28326 0 0 2.7199 372.39 -643.91)"/><path d="M831.78 249.24c0-6.899-53.785-12.5-120.03-12.5H471.69c-66.248 0-120.03 5.601-120.03 12.5v372.07c0 6.899 53.784 12.5 120.03 12.5h240.06c66.248 0 120.03-5.601 120.03-12.5V249.24z" fill="currentColor" transform="matrix(.28326 0 0 2.7199 608.39 -643.91)"/><path d="M831.78 249.24c0-6.899-53.785-12.5-120.03-12.5H471.69c-66.248 0-120.03 5.601-120.03 12.5v372.07c0 6.899 53.784 12.5 120.03 12.5h240.06c66.248 0 120.03-5.601 120.03-12.5V249.24z" fill="currentColor" transform="matrix(.28326 0 0 2.7199 844.39 -643.91)"/></symbol><symbol clip-rule="evenodd" fill-rule="evenodd" stroke-linejoin="round" stroke-miterlimit="2" id="icon-admin-content-width" viewBox="0 0 1080 1080"><path d="M412.67 189.46c0-5.103-49.382-9.245-110.21-9.245H142.85c-60.825 0-110.21 4.142-110.21 9.245v326.27c0 5.102 49.382 9.245 110.21 9.245h159.61c60.825 0 110.21-4.143 110.21-9.245V189.46z" fill="currentColor" transform="matrix(.26314 0 0 3.1367 -8.591 -565.3)"/><path d="M412.67 189.46c0-5.103-49.382-9.245-110.21-9.245H142.85c-60.825 0-110.21 4.142-110.21 9.245v326.27c0 5.102 49.382 9.245 110.21 9.245h159.61c60.825 0 110.21-4.143 110.21-9.245V189.46z" fill="currentColor" transform="matrix(.26314 0 0 3.1367 971.41 -565.3)"/><path d="M406.66 513.66h266.68v-28.614a10.001 10.001 0 0 1 17.071-7.071l57.022 57.021a10 10 0 0 1 0 14.142l-57.022 57.021a10 10 0 0 1-17.071-7.071v-28.614H406.66v28.614a10.001 10.001 0 0 1-17.071 7.071l-57.022-57.021a10 10 0 0 1 0-14.142l57.022-57.021a10 10 0 0 1 17.071 7.071v28.614z" fill="currentColor" transform="matrix(1.6638 0 0 1.7484 -358.45 -830.59)"/><path d="M412.67 201.55c0-11.773-34.056-21.331-76.005-21.331h-228.01c-41.948 0-76.005 9.558-76.005 21.331v302.1c0 11.773 34.057 21.331 76.005 21.331h228.01c41.949 0 76.005-9.558 76.005-21.331v-302.1z" fill="currentColor" transform="matrix(0 .36998 -1.3183 0 892.06 294.62)"/><path d="M412.67 196.24c0-8.844-34.056-16.024-76.005-16.024h-228.01c-41.948 0-76.005 7.18-76.005 16.024v312.72c0 8.845 34.057 16.025 76.005 16.025h228.01c41.949 0 76.005-7.18 76.005-16.025V196.24z" fill="currentColor" transform="matrix(0 .36998 -1.7548 0 1121.2 505.52)"/><path d="M412.67 194.27c0-7.755-34.056-14.05-76.005-14.05h-228.01c-41.948 0-76.005 6.295-76.005 14.05v316.66c0 7.755 34.057 14.051 76.005 14.051h228.01c41.949 0 76.005-6.296 76.005-14.051V194.27z" fill="currentColor" transform="matrix(0 .36998 -2.0014 0 1250.7 927.32)"/><path d="M412.67 204.74c0-13.534-34.056-24.522-76.005-24.522h-228.01c-41.948 0-76.005 10.988-76.005 24.522v295.72c0 13.534 34.057 24.522 76.005 24.522h228.01c41.949 0 76.005-10.988 76.005-24.522V204.74z" fill="currentColor" transform="matrix(0 .36998 -1.1467 0 802.02 716.42)"/></symbol><symbol clip-rule="evenodd" fill-rule="evenodd" stroke-linejoin="round" stroke-miterlimit="2" id="icon-admin-hero-width" viewBox="0 0 1080 1080"><path d="M412.67 196.6c0-9.039-49.382-16.377-110.21-16.377H142.85c-60.825 0-110.21 7.338-110.21 16.377v312.01c0 9.039 49.382 16.377 110.21 16.377h159.61c60.825 0 110.21-7.338 110.21-16.377V196.6z" fill="currentColor" transform="matrix(.26314 0 0 1.7708 -8.591 150.37)"/><path d="M412.67 189.48c0-5.109-49.382-9.257-110.21-9.257H142.85c-60.825 0-110.21 4.148-110.21 9.257v326.25c0 5.11 49.382 9.258 110.21 9.258h159.61c60.825 0 110.21-4.148 110.21-9.258V189.48z" fill="currentColor" transform="matrix(0 .26314 -3.1326 0 1644.6 460.91)"/><path d="M406.66 513.66h266.68v-28.614a10.001 10.001 0 0 1 17.071-7.071l57.022 57.021a10 10 0 0 1 0 14.142l-57.022 57.021a10 10 0 0 1-17.071-7.071v-28.614H406.66v28.614a10.001 10.001 0 0 1-17.071 7.071l-57.022-57.021a10 10 0 0 1 0-14.142l57.022-57.021a10 10 0 0 1 17.071 7.071v28.614z" fill="currentColor" transform="matrix(2.567 0 0 2.6976 -846.18 -1290.2)"/><path d="M412.67 196.6c0-9.039-49.382-16.377-110.21-16.377H142.85c-60.825 0-110.21 7.338-110.21 16.377v312.01c0 9.039 49.382 16.377 110.21 16.377h159.61c60.825 0 110.21-7.338 110.21-16.377V196.6z" fill="currentColor" transform="matrix(.26314 0 0 1.7708 971.41 150.37)"/><path d="m50 772.19 344.8-346.8 197.19 135.83 200.33-240.67 251.56 320.48-13.87 248.64h-980V772.18z" fill="currentColor" transform="matrix(-1 0 0 .65746 1093.9 495.07)"/><circle cx="769.49" cy="641.66" r="48.329" fill="currentColor" transform="translate(-77.322 -89.513) scale(1.1527)"/></symbol><symbol clip-rule="evenodd" fill-rule="evenodd" stroke-linejoin="round" stroke-miterlimit="2" id="icon-admin-sizes-large" viewBox="0 0 1080 1080"><path d="M412.67 208.95c0-15.857-14.19-28.73-31.668-28.73H64.312c-17.479 0-31.669 12.873-31.669 28.73v287.3c0 15.856 14.19 28.73 31.669 28.73h316.69c17.478 0 31.668-12.874 31.668-28.73v-287.3zm-15.834 0v287.3c0 7.928-7.095 14.365-15.834 14.365H64.312c-8.739 0-15.835-6.437-15.835-14.365v-287.3c0-7.928 7.096-14.365 15.835-14.365h316.69c8.739 0 15.834 6.437 15.834 14.365z" fill="currentColor" transform="matrix(-1.5788 0 0 -1.7403 771.55 1033.6)"/><path d="M120 400H50c-27.596 0-50-22.404-50-50V50C0 22.404 22.404 0 50 0h300c27.596 0 50 22.404 50 50v70h-25V50c0-13.798-11.202-25-25-25H50c-13.798 0-25 11.202-25 25v300c0 13.798 11.202 25 25 25h70v25z" fill="currentColor"/><path d="M412.67 201.76c0-11.892-10.642-21.547-23.751-21.547H56.399c-13.109 0-23.752 9.655-23.752 21.547v301.67c0 11.893 10.643 21.548 23.752 21.548h332.52c13.109 0 23.751-9.655 23.751-21.548V201.76z" fill="currentColor" transform="matrix(-2.1051 0 0 -2.3204 1148.7 1498.2)"/></symbol><symbol clip-rule="evenodd" fill-rule="evenodd" stroke-linejoin="round" stroke-miterlimit="2" id="icon-admin-sizes-medium" viewBox="0 0 1080 1080"><path d="M412.67 223.31c0-23.785-21.285-43.095-47.503-43.095H80.147c-26.217 0-47.503 19.31-47.503 43.095v258.57c0 23.785 21.286 43.096 47.503 43.096h285.02c26.218 0 47.503-19.311 47.503-43.096V223.31zm-23.751 0v258.57c0 11.893-10.643 21.548-23.752 21.548H80.147c-13.109 0-23.751-9.655-23.751-21.548V223.31c0-11.892 10.642-21.548 23.751-21.548h285.02c13.109 0 23.752 9.656 23.752 21.548z" fill="currentColor" transform="matrix(-1.0526 0 0 -1.1602 434.36 609.09)"/><path d="M412.67 208.95c0-15.857-14.19-28.73-31.668-28.73H64.312c-17.479 0-31.669 12.873-31.669 28.73v287.3c0 15.856 14.19 28.73 31.669 28.73h316.69c17.478 0 31.668-12.874 31.668-28.73v-287.3z" fill="currentColor" transform="matrix(-1.5788 0 0 -1.7403 771.55 1033.6)"/><path d="M412.67 201.76c0-11.892-10.642-21.547-23.751-21.547H56.399c-13.109 0-23.752 9.655-23.752 21.547v301.67c0 11.893 10.643 21.548 23.752 21.548h332.52c13.109 0 23.751-9.655 23.751-21.548V201.76zm-11.875 0v301.67c0 5.946-5.322 10.774-11.876 10.774H56.399c-6.555 0-11.876-4.828-11.876-10.774V201.76c0-5.946 5.321-10.773 11.876-10.773h332.52c6.554 0 11.876 4.827 11.876 10.773z" fill="currentColor" transform="matrix(-2.1051 0 0 -2.3204 1148.7 1498.2)"/></symbol><symbol clip-rule="evenodd" fill-rule="evenodd" stroke-linejoin="round" stroke-miterlimit="2" id="icon-admin-sizes-none" viewBox="0 0 1080 1080"><path d="M412.67 196.18c0-8.809-7.883-15.961-17.593-15.961H50.237c-9.71 0-17.594 7.152-17.594 15.961v312.84c0 8.809 7.884 15.961 17.594 15.961h344.84c9.71 0 17.593-7.152 17.593-15.961V196.18zm-8.797 0v312.84c0 4.404-3.941 7.98-8.796 7.98H50.237c-4.855 0-8.797-3.576-8.797-7.98V196.18c0-4.405 3.942-7.981 8.797-7.981h344.84c4.855 0 8.796 3.576 8.796 7.981z" fill="currentColor" transform="matrix(-2.8419 0 0 -3.1326 1172.8 1644.6)"/><path d="M935.56 476.88c0-49.271-5.312-89.273-11.856-89.273h-488.46c-6.544 0-11.856 40.002-11.856 89.273v178.54c0 49.271 5.312 89.272 11.856 89.272h488.46c6.544 0 11.856-40.001 11.856-89.272V476.88z" fill="currentColor" transform="matrix(1.4911 1.4911 -.19802 .19802 -361.039 -585.26)"/><path d="M935.56 476.88c0-49.271-5.312-89.273-11.856-89.273h-488.46c-6.544 0-11.856 40.002-11.856 89.273v178.54c0 49.271 5.312 89.272 11.856 89.272h488.46c6.544 0 11.856-40.001 11.856-89.272V476.88z" fill="currentColor" transform="matrix(-1.4911 1.4911 -.19802 -.19802 1665.299 -361.04)"/></symbol><symbol clip-rule="evenodd" fill-rule="evenodd" stroke-linejoin="round" stroke-miterlimit="2" id="icon-admin-sizes-small" viewBox="0 0 1080 1080"><path d="M412.67 223.31c0-23.785-21.285-43.095-47.503-43.095H80.147c-26.217 0-47.503 19.31-47.503 43.095v258.57c0 23.785 21.286 43.096 47.503 43.096h285.02c26.218 0 47.503-19.311 47.503-43.096V223.31z" fill="currentColor" transform="matrix(-1.0526 0 0 -1.1602 434.36 609.09)"/><path d="M412.67 208.95c0-15.857-14.19-28.73-31.668-28.73H64.312c-17.479 0-31.669 12.873-31.669 28.73v287.3c0 15.856 14.19 28.73 31.669 28.73h316.69c17.478 0 31.668-12.874 31.668-28.73v-287.3zm-15.834 0v287.3c0 7.928-7.095 14.365-15.834 14.365H64.312c-8.739 0-15.835-6.437-15.835-14.365v-287.3c0-7.928 7.096-14.365 15.835-14.365h316.69c8.739 0 15.834 6.437 15.834 14.365z" fill="currentColor" transform="matrix(-1.5788 0 0 -1.7403 771.55 1033.6)"/><path d="M720 280h310c27.6 0 50 22.404 50 50v700c0 27.6-22.4 50-50 50H330c-27.596 0-50-22.4-50-50V720h25v310c0 13.8 11.202 25 25 25h700c13.8 0 25-11.2 25-25V330c0-13.798-11.2-25-25-25H720v-25z" fill="currentColor"/></symbol><symbol clip-rule="evenodd" fill-rule="evenodd" stroke-linejoin="round" stroke-miterlimit="2" id="icon-admin-textalign-center" viewBox="0 0 1080 1080"><path d="M412.67 203.58c0-12.892-34.056-23.359-76.005-23.359h-228.01c-41.948 0-76.005 10.467-76.005 23.359v298.05c0 12.892 34.057 23.359 76.005 23.359h228.01c41.949 0 76.005-10.467 76.005-23.359V203.58z" fill="currentColor" transform="matrix(0 .5167 -1.68123 0 1132.781 -16.88)"/><path d="M412.67 197.76c0-9.684-34.056-17.547-76.005-17.547h-228.01c-41.948 0-76.005 7.863-76.005 17.547v309.67c0 9.685 34.057 17.548 76.005 17.548h228.01c41.949 0 76.005-7.863 76.005-17.548V197.76z" fill="currentColor" transform="matrix(0 .5167 -2.23795 0 1329.109 277.674)"/><path d="M412.67 195.6c0-8.492-34.056-15.386-76.005-15.386h-228.01c-41.948 0-76.005 6.894-76.005 15.386v313.99c0 8.492 34.057 15.386 76.005 15.386h228.01c41.949 0 76.005-6.894 76.005-15.386V195.6z" fill="currentColor" transform="matrix(0 .5167 -2.55249 0 1440.062 866.744)"/><path d="M412.67 207.07c0-14.821-34.056-26.853-76.005-26.853h-228.01c-41.948 0-76.005 12.032-76.005 26.853v291.06c0 14.82 34.057 26.853 76.005 26.853h228.01c41.949 0 76.005-12.033 76.005-26.853V207.07z" fill="currentColor" transform="matrix(0 .5167 -1.46248 0 1055.66 572.209)"/></symbol><symbol clip-rule="evenodd" fill-rule="evenodd" stroke-linejoin="round" stroke-miterlimit="2" id="icon-admin-textalign-left" viewBox="0 0 1080 1080"><path d="M412.67 189.48c0-5.109-49.382-9.257-110.21-9.257H142.85c-60.825 0-110.21 4.148-110.21 9.257v326.25c0 5.11 49.382 9.258 110.21 9.258h159.61c60.825 0 110.21-4.148 110.21-9.258V189.48z" fill="currentColor" transform="matrix(.2631 0 0 3.1324 -8.592 -564.541)"/><path d="M412.67 203.58c0-12.892-34.056-23.359-76.005-23.359h-228.01c-41.948 0-76.005 10.467-76.005 23.359v298.05c0 12.892 34.057 23.359 76.005 23.359h228.01c41.949 0 76.005-10.467 76.005-23.359V203.58z" fill="currentColor" transform="matrix(0 .5167 -1.68123 0 1082.602 -16.88)"/><path d="M412.67 197.76c0-9.684-34.056-17.547-76.005-17.547h-228.01c-41.948 0-76.005 7.863-76.005 17.547v309.67c0 9.685 34.057 17.548 76.005 17.548h228.01c41.949 0 76.005-7.863 76.005-17.548V197.76z" fill="currentColor" transform="matrix(0 .5167 -2.23795 0 1374.847 277.674)"/><path d="M412.67 195.6c0-8.492-34.056-15.386-76.005-15.386h-228.01c-41.948 0-76.005 6.894-76.005 15.386v313.99c0 8.492 34.057 15.386 76.005 15.386h228.01c41.949 0 76.005-6.894 76.005-15.386V195.6z" fill="currentColor" transform="matrix(0 .5167 -2.55249 0 1539.896 866.744)"/><path d="M412.67 207.07c0-14.821-34.056-26.853-76.005-26.853h-228.01c-41.948 0-76.005 12.032-76.005 26.853v291.06c0 14.82 34.057 26.853 76.005 26.853h228.01c41.949 0 76.005-12.033 76.005-26.853V207.07z" fill="currentColor" transform="matrix(0 .5167 -1.46248 0 967.767 572.209)"/></symbol><symbol clip-rule="evenodd" fill-rule="evenodd" stroke-linejoin="round" stroke-miterlimit="2" id="icon-admin-textalign-right" viewBox="0 0 1080 1080"><path d="M412.67 189.48c0-5.109-49.382-9.257-110.21-9.257H142.85c-60.825 0-110.21 4.148-110.21 9.257v326.25c0 5.11 49.382 9.258 110.21 9.258h159.61c60.825 0 110.21-4.148 110.21-9.258V189.48z" fill="currentColor" transform="matrix(-.2631 0 0 3.1324 1088.642 -564.541)"/><path d="M412.67 203.58c0-12.892-34.056-23.359-76.005-23.359h-228.01c-41.948 0-76.005 10.467-76.005 23.359v298.05c0 12.892 34.057 23.359 76.005 23.359h228.01c41.949 0 76.005-10.467 76.005-23.359V203.58z" fill="currentColor" transform="matrix(0 .5167 1.68123 0 -2.552 -16.88)"/><path d="M412.67 197.76c0-9.684-34.056-17.547-76.005-17.547h-228.01c-41.948 0-76.005 7.863-76.005 17.547v309.67c0 9.685 34.057 17.548 76.005 17.548h228.01c41.949 0 76.005-7.863 76.005-17.548V197.76z" fill="currentColor" transform="matrix(0 .5167 2.23795 0 -294.797 277.674)"/><path d="M412.67 195.6c0-8.492-34.056-15.386-76.005-15.386h-228.01c-41.948 0-76.005 6.894-76.005 15.386v313.99c0 8.492 34.057 15.386 76.005 15.386h228.01c41.949 0 76.005-6.894 76.005-15.386V195.6z" fill="currentColor" transform="matrix(0 .5167 2.55249 0 -459.846 866.744)"/><path d="M412.67 207.07c0-14.821-34.056-26.853-76.005-26.853h-228.01c-41.948 0-76.005 12.032-76.005 26.853v291.06c0 14.82 34.057 26.853 76.005 26.853h228.01c41.949 0 76.005-12.033 76.005-26.853V207.07z" fill="currentColor" transform="matrix(0 .5167 1.46248 0 112.283 572.209)"/></symbol><symbol clip-rule="evenodd" fill-rule="evenodd" stroke-linejoin="round" stroke-miterlimit="2" id="icon-admin-valign-bottom" viewBox="0 0 1080 1080"><path d="M412.67 189.48c0-5.109-49.382-9.257-110.21-9.257H142.85c-60.825 0-110.21 4.148-110.21 9.257v326.25c0 5.11 49.382 9.258 110.21 9.258h159.61c60.825 0 110.21-4.148 110.21-9.258V189.48z" fill="currentColor" transform="matrix(0 -.2631 3.1324 0 -564.541 938.831)"/><path d="M508.28 304.29v55.052a5.89 5.89 0 0 1-10.054 4.164l-92.352-92.351a5.89 5.89 0 0 1 0-8.329l92.352-92.352a5.889 5.889 0 0 1 10.054 4.164v55.053h114.97a5.89 5.89 0 0 1 5.89 5.889v62.82a5.89 5.89 0 0 1-5.89 5.89H508.28z" fill="currentColor" transform="rotate(-90 806.066 946.087) scale(2.5469)"/></symbol><symbol clip-rule="evenodd" fill-rule="evenodd" stroke-linejoin="round" stroke-miterlimit="2" id="icon-admin-valign-middle" viewBox="0 0 1080 1080"><path d="M412.67 189.48c0-5.109-49.382-9.257-110.21-9.257H142.85c-60.825 0-110.21 4.148-110.21 9.257v326.25c0 5.11 49.382 9.258 110.21 9.258h159.61c60.825 0 110.21-4.148 110.21-9.258V189.48z" fill="currentColor" transform="matrix(0 -.2631 3.1324 0 -564.541 598.575)"/><path d="M508.28 304.29v56.563a5.265 5.265 0 0 1-8.985 3.722l-93.864-93.863a5.263 5.263 0 0 1 0-7.444l93.864-93.863a5.263 5.263 0 0 1 8.985 3.722v56.564h115.6a5.263 5.263 0 0 1 5.264 5.263v64.072a5.264 5.264 0 0 1-5.264 5.264h-115.6z" fill="currentColor" transform="rotate(-90 614.004 581.26) scale(1.8998)"/><path d="M508.28 304.29v56.563a5.265 5.265 0 0 1-8.985 3.722l-93.864-93.863a5.263 5.263 0 0 1 0-7.444l93.864-93.863a5.263 5.263 0 0 1 8.985 3.722v56.564h115.6a5.263 5.263 0 0 1 5.264 5.263v64.072a5.264 5.264 0 0 1-5.264 5.264h-115.6z" fill="currentColor" transform="rotate(90 581.264 465.968) scale(1.89981)"/></symbol><symbol clip-rule="evenodd" fill-rule="evenodd" stroke-linejoin="round" stroke-miterlimit="2" id="icon-admin-valign-top" viewBox="0 0 1080 1080"><path d="M412.67 189.48c0-5.109-49.382-9.257-110.21-9.257H142.85c-60.825 0-110.21 4.148-110.21 9.257v326.25c0 5.11 49.382 9.258 110.21 9.258h159.61c60.825 0 110.21-4.148 110.21-9.258V189.48z" fill="currentColor" transform="matrix(0 .2631 -3.1324 0 1644.591 141.219)"/><path d="M508.28 304.29v55.052a5.89 5.89 0 0 1-10.054 4.164l-92.352-92.351a5.89 5.89 0 0 1 0-8.329l92.352-92.352a5.889 5.889 0 0 1 10.054 4.164v55.053h114.97a5.89 5.89 0 0 1 5.89 5.889v62.82a5.89 5.89 0 0 1-5.89 5.89H508.28z" fill="currentColor" transform="rotate(90 946.087 273.983) scale(2.5469)"/></symbol><symbol clip-rule="evenodd" fill-rule="evenodd" stroke-linejoin="round" stroke-miterlimit="2" id="icon-admin-weighting-1-1" viewBox="0 0 1080 1080"><path d="M412.67 196.18c0-8.809-17.376-15.961-38.778-15.961H71.422c-21.402 0-38.778 7.152-38.778 15.961v312.84c0 8.809 17.376 15.961 38.778 15.961h302.47c21.402 0 38.778-7.152 38.778-15.961V196.18z" fill="currentColor" transform="matrix(1.2894 0 0 3.1326 -42.096 -564.54)"/><path d="M412.67 196.18c0-8.809-17.376-15.961-38.778-15.961H71.422c-21.402 0-38.778 7.152-38.778 15.961v312.84c0 8.809 17.376 15.961 38.778 15.961h302.47c21.402 0 38.778-7.152 38.778-15.961V196.18z" fill="currentColor" transform="matrix(1.2894 0 0 3.1326 547.9 -564.54)"/></symbol><symbol clip-rule="evenodd" fill-rule="evenodd" stroke-linejoin="round" stroke-miterlimit="2" id="icon-admin-weighting-1-2" viewBox="0 0 1080 1080"><path d="M412.67 196.18c0-8.809-12.399-15.961-27.671-15.961H60.319c-15.273 0-27.672 7.152-27.672 15.961v312.84c0 8.809 12.399 15.961 27.672 15.961h324.68c15.272 0 27.671-7.152 27.671-15.961V196.18z" fill="currentColor" transform="matrix(-1.8069 0 0 -3.1326 1138.992 1644.54)"/><path d="M412.67 196.18c0-8.809-29.025-15.961-64.777-15.961H97.423c-35.751 0-64.777 7.152-64.777 15.961v312.84c0 8.809 29.026 15.961 64.777 15.961h250.47c35.752 0 64.777-7.152 64.777-15.961V196.18z" fill="currentColor" transform="matrix(-.77188 0 0 -3.1326 318.53 1644.54)"/></symbol><symbol clip-rule="evenodd" fill-rule="evenodd" stroke-linejoin="round" stroke-miterlimit="2" id="icon-admin-weighting-2-1" viewBox="0 0 1080 1080"><path d="M412.67 196.18c0-8.809-12.399-15.961-27.671-15.961H60.319c-15.273 0-27.672 7.152-27.672 15.961v312.84c0 8.809 12.399 15.961 27.672 15.961h324.68c15.272 0 27.671-7.152 27.671-15.961V196.18z" fill="currentColor" transform="matrix(1.8069 0 0 3.1326 -58.992 -564.54)"/><path d="M412.67 196.18c0-8.809-29.025-15.961-64.777-15.961H97.423c-35.751 0-64.777 7.152-64.777 15.961v312.84c0 8.809 29.026 15.961 64.777 15.961h250.47c35.752 0 64.777-7.152 64.777-15.961V196.18z" fill="currentColor" transform="matrix(.77188 0 0 3.1326 761.47 -564.54)"/></symbol><symbol clip-rule="evenodd" fill-rule="evenodd" stroke-linejoin="round" stroke-miterlimit="2" id="icon-admin-weighting-2-3" viewBox="0 0 1080 1080"><path d="M412.67 196.18c0-8.809-14.003-15.961-31.252-15.961H63.898c-17.248 0-31.252 7.152-31.252 15.961v312.84c0 8.809 14.004 15.961 31.252 15.961h317.52c17.249 0 31.252-7.152 31.252-15.961V196.18z" fill="currentColor" transform="matrix(-1.5999 0 0 -3.1326 1132.234 1644.54)"/><path d="M412.67 196.18c0-8.809-22.887-15.961-51.078-15.961H83.722c-28.191 0-51.079 7.152-51.079 15.961v312.84c0 8.809 22.888 15.961 51.079 15.961h277.87c28.191 0 51.078-7.152 51.078-15.961V196.18z" fill="currentColor" transform="matrix(-.97888 0 0 -3.1326 403.96 1644.54)"/></symbol><symbol clip-rule="evenodd" fill-rule="evenodd" stroke-linejoin="round" stroke-miterlimit="2" id="icon-admin-weighting-3-2" viewBox="0 0 1080 1080"><path d="M412.67 196.18c0-8.809-14.003-15.961-31.252-15.961H63.898c-17.248 0-31.252 7.152-31.252 15.961v312.84c0 8.809 14.004 15.961 31.252 15.961h317.52c17.249 0 31.252-7.152 31.252-15.961V196.18z" fill="currentColor" transform="matrix(1.5999 0 0 3.1326 -52.234 -564.54)"/><path d="M412.67 196.18c0-8.809-22.887-15.961-51.078-15.961H83.722c-28.191 0-51.079 7.152-51.079 15.961v312.84c0 8.809 22.888 15.961 51.079 15.961h277.87c28.191 0 51.078-7.152 51.078-15.961V196.18z" fill="currentColor" transform="matrix(.97888 0 0 3.1326 676.04 -564.54)"/></symbol><symbol fill="none" id="icon-arrow-red" viewBox="0 0 20 21"><path d="M17.043 3.125 1.104 19.15M5.82 2.064H18.3v11.492" stroke="#CA0813" stroke-width="3"/></symbol><symbol fill="none" id="icon-book" viewBox="0 0 26 24"><path clip-rule="evenodd" d="M13 22V4.5S10.5 2 8 2 1.75 4.5 1.75 4.5V22S5.5 19.5 8 19.5s5 2.5 5 2.5Zm0 0V4.5S15.5 2 18 2s6.25 2.5 6.25 2.5V22S20.5 19.5 18 19.5 13 22 13 22Z" stroke="#fff" stroke-width="2.3" stroke-linecap="round" stroke-linejoin="round"/></symbol><symbol fill="none" id="icon-check" viewBox="0 0 30 30"><path d="m9.8 15.65 3.25 3.25 7.15-7.15" stroke="#fff" stroke-width="2.3" stroke-linecap="round"/><path d="M15 28a3.902 3.902 0 0 0 3.692-2.639c.132-.388.655-.605 1.024-.424a3.902 3.902 0 0 0 5.22-5.22c-.18-.37.037-.893.425-1.025a3.902 3.902 0 0 0 0-7.383c-.388-.133-.605-.656-.424-1.025a3.902 3.902 0 0 0-5.22-5.22c-.37.18-.893-.037-1.025-.425a3.902 3.902 0 0 0-7.383 0c-.133.388-.656.605-1.025.424a3.902 3.902 0 0 0-5.22 5.22c.18.37-.037.893-.425 1.026a3.902 3.902 0 0 0 0 7.383c.388.132.605.655.424 1.024a3.902 3.902 0 0 0 5.22 5.22c.37-.18.893.037 1.026.425A3.902 3.902 0 0 0 15 28Z" stroke="#fff" stroke-width="2.3" stroke-linecap="round"/></symbol><symbol class="w-5 h-5" fill="currentColor" id="icon-chevron-down" viewBox="0 0 20 20"><path fill-rule="evenodd" d="M5.293 7.293a1 1 0 0 1 1.414 0L10 10.586l3.293-3.293a1 1 0 1 1 1.414 1.414l-4 4a1 1 0 0 1-1.414 0l-4-4a1 1 0 0 1 0-1.414z" clip-rule="evenodd"/></symbol><symbol class="w-5 h-5" fill="currentColor" id="icon-chevron-left" viewBox="0 0 20 20"><path fill-rule="evenodd" d="M12.707 5.293a1 1 0 0 1 0 1.414L9.414 10l3.293 3.293a1 1 0 0 1-1.414 1.414l-4-4a1 1 0 0 1 0-1.414l4-4a1 1 0 0 1 1.414 0z" clip-rule="evenodd"/></symbol><symbol class="w-5 h-5" fill="currentColor" id="icon-chevron-right" viewBox="0 0 20 20"><path fill-rule="evenodd" d="M7.293 14.707a1 1 0 0 1 0-1.414L10.586 10 7.293 6.707a1 1 0 0 1 1.414-1.414l4 4a1 1 0 0 1 0 1.414l-4 4a1 1 0 0 1-1.414 0z" clip-rule="evenodd"/></symbol><symbol fill="none" id="icon-focus" viewBox="0 0 28 28"><path clip-rule="evenodd" d="M14 23.8c5.413 0 9.8-4.388 9.8-9.8 0-5.412-4.387-9.8-9.8-9.8-5.412 0-9.8 4.388-9.8 9.8 0 5.412 4.388 9.8 9.8 9.8Z" stroke="#fff" stroke-width="2.3"/><path d="M14 0v8.4m0 11.2V28M0 14h8.4m11.2 0H28" stroke="#fff" stroke-width="2.3" stroke-linejoin="round"/><circle cx="14" cy="14" r="1.4" stroke="#fff" stroke-width="2.3" stroke-linecap="round"/></symbol><symbol fill="none" id="icon-growth" viewBox="0 0 26 17"><path d="m1.3 15 7.8-7.8 5.2 5.2L24.7 2" stroke="#fff" stroke-width="2.3" stroke-linecap="round" stroke-linejoin="round"/><path d="M24.7 5.9V2h-3.9" stroke="#fff" stroke-width="2.3" stroke-linecap="round"/></symbol><symbol fill="none" id="icon-headphones" viewBox="0 0 32 33"><path d="M28 18h-3.333a2 2 0 0 0-2 2v4a2 2 0 0 0 2 2H26a2 2 0 0 0 2-2v-6c0-6.627-5.373-12-12-12S4 11.373 4 18v6a2 2 0 0 0 2 2h1.333a2 2 0 0 0 2-2v-4a2 2 0 0 0-2-2H4" stroke="#fff" stroke-width="2.3"/></symbol><symbol class="w-6 h-6" fill="none" stroke="currentColor" id="icon-home" viewBox="0 0 24 24"><path stroke-linecap="round" stroke-linejoin="round" stroke-width="2" d="m3 12 2-2m0 0 7-7 7 7M5 10v10a1 1 0 0 0 1 1h3m10-11 2 2m-2-2v10a1 1 0 0 1-1 1h-3m-6 0a1 1 0 0 0 1-1v-4a1 1 0 0 1 1-1h2a1 1 0 0 1 1 1v4a1 1 0 0 0 1 1m-6 0h6"/></symbol><symbol fill="none" id="icon-icon_an-ihrer-seite" viewBox="0 0 20 20"><path fill-rule="evenodd" clip-rule="evenodd" d="M9.217 16.633v-3.077a3.8 3.8 0 1 0-7.6 0v3.083h1.047v-3.083a2.752 2.752 0 1 1 5.505 0v3.077h1.048Z" fill="#fff"/><path fill-rule="evenodd" clip-rule="evenodd" d="M5.3 5.771a2.25 2.25 0 0 0 0 4.497 2.25 2.25 0 0 0 0-4.497Zm0 1.048a1.2 1.2 0 1 1-.001 2.402 1.2 1.2 0 0 1 0-2.402Zm13.082 9.814v-3.077c0-2.096-1.704-3.8-3.8-3.8a3.804 3.804 0 0 0-3.8 3.8v3.083h1.047v-3.083a2.755 2.755 0 0 1 2.753-2.752 2.755 2.755 0 0 1 2.752 2.752v3.077h1.048Z" fill="#fff"/><path fill-rule="evenodd" clip-rule="evenodd" d="M14.465 5.771a2.25 2.25 0 0 0 0 4.497 2.25 2.25 0 0 0 0-4.497Zm0 1.048a1.2 1.2 0 1 1-.001 2.402 1.2 1.2 0 0 1 0-2.402Z" fill="#fff"/><path fill-rule="evenodd" clip-rule="evenodd" d="M10.002 3.36a2.25 2.25 0 0 0 0 4.496 2.25 2.25 0 0 0 0-4.497Zm0 1.047a1.2 1.2 0 1 1-.001 2.402 1.2 1.2 0 0 1 .001-2.402Z" fill="#fff"/></symbol><symbol fill="none" id="icon-icon_beste-aussichten" viewBox="0 0 20 20"><path fill-rule="evenodd" clip-rule="evenodd" d="m11.138 14.844.36-.15-.074-.73a2.567 2.567 0 0 1 2.536-2.54l.734.074.15-.36c.287-.699.44-1.48.44-2.295a6.444 6.444 0 0 0-6.44-6.44 6.444 6.444 0 0 0-6.442 6.44 6.444 6.444 0 0 0 6.441 6.44c.816 0 1.596-.152 2.295-.44Zm2.868-4.468h-.017a3.614 3.614 0 0 0-3.613 3.613v.017a5.08 5.08 0 0 1-1.533.23A5.396 5.396 0 0 1 3.45 8.843 5.396 5.396 0 0 1 8.843 3.45a5.396 5.396 0 0 1 5.393 5.393 5.08 5.08 0 0 1-.23 1.533Z" fill="#fff"/><path fill-rule="evenodd" clip-rule="evenodd" d="M14.296 11.456a2.546 2.546 0 0 1 2.255 2.53 2.566 2.566 0 0 1-2.564 2.565 2.546 2.546 0 0 1-2.531-2.255l-1.041.122a3.593 3.593 0 0 0 3.572 3.181 3.614 3.614 0 0 0 3.612-3.612 3.593 3.593 0 0 0-3.181-3.572l-.122 1.04Z" fill="#fff"/><path fill-rule="evenodd" clip-rule="evenodd" d="M13.462 12.441v3.09h1.048v-3.09h-1.048Z" fill="#fff"/><path fill-rule="evenodd" clip-rule="evenodd" d="M15.525 13.462H12.44v1.048h3.084v-1.048ZM8.315 3.184v6.18h3.608V8.316h-2.56V3.184H8.315Z" fill="#fff"/></symbol><symbol fill="none" id="icon-icon_mach-dein-ding" viewBox="0 0 20 20"><path fill-rule="evenodd" clip-rule="evenodd" d="M9.443 13.984v2.105H4.171v-2.105h-1.11V17.2h7.492v-3.215h-1.11Z" fill="#fff"/><path fill-rule="evenodd" clip-rule="evenodd" d="M15.82 13.984v2.105h-5.267v-2.105h-1.11V17.2h7.486v-3.215h-1.11Z" fill="#fff"/><path fill-rule="evenodd" clip-rule="evenodd" d="M9.443 11.328v2.105H4.171v-2.105h-1.11v3.215h7.492v-3.215h-1.11Z" fill="#fff"/><path fill-rule="evenodd" clip-rule="evenodd" d="M15.82 11.328v2.105h-5.267v-2.105h-1.11v3.215h7.486v-3.215h-1.11Z" fill="#fff"/><path fill-rule="evenodd" clip-rule="evenodd" d="M9.443 8.667v2.105H4.171V8.667h-1.11v3.215h7.492V8.667h-1.11Z" fill="#fff"/><path fill-rule="evenodd" clip-rule="evenodd" d="M16.935 11.88V8.11H9.443v3.77h7.492Zm-1.11-2.66v1.55h-5.272V9.22h5.272Z" fill="#fff"/><path fill-rule="evenodd" clip-rule="evenodd" d="M9.443 6.006V8.11H4.171V6.006h-1.11V9.22h7.492V6.006h-1.11Z" fill="#fff"/><path fill-rule="evenodd" clip-rule="evenodd" d="M10.553 6.567v-3.77H3.062v3.77h7.491Zm-1.11-2.66v1.55H4.171v-1.55h5.272Z" fill="#fff"/></symbol><symbol id="icon-info-light-bulb" viewBox="0 0 24 24"><path d="M12.5 5.5a.5.5 0 0 0 0 1c1.083 0 1.964.881 1.964 1.964a.5.5 0 0 0 1 0A2.968 2.968 0 0 0 12.5 5.5zm0-4.5C8.364 1 5 4.364 5 8.5c0 1.486.44 2.922 1.274 4.165l.08.135C8.179 15.406 8.5 16.23 8.5 17v3a1 1 0 0 0 1 1h2c0 .26.11.52.29.71.19.18.45.29.71.29.26 0 .52-.11.71-.29.18-.19.29-.45.29-.71h2a1 1 0 0 0 1-1v-3c0-.782.319-1.61 2.132-4.199A7.453 7.453 0 0 0 20 8.5C20 4.364 16.636 1 12.5 1zm2 18h-4v-1h4v1zm2.495-7.347c-1.466 2.093-2.143 3.289-2.385 4.347H13.5v-2a1 1 0 0 0-2 0v2h-1.113c-.24-1.03-.898-2.2-2.306-4.22l-.077-.129A5.454 5.454 0 0 1 7 8.5C7 5.467 9.467 3 12.5 3S18 5.467 18 8.5a5.463 5.463 0 0 1-1.005 3.153z" fill="currentColor"/></symbol><symbol class="w-6 h-6" fill="none" stroke="currentColor" id="icon-info-warning" viewBox="0 0 24 24"><path stroke-linecap="round" stroke-linejoin="round" stroke-width="2" d="M12 8v4m0 4h.01M21 12a9 9 0 1 1-18 0 9 9 0 0 1 18 0z"/></symbol><symbol fill="none" id="icon-like" viewBox="0 0 23 25"><path clip-rule="evenodd" d="M6.593 8.994a2 2 0 0 0-.482 1.301V21a2 2 0 0 0 2 2h9.776a2 2 0 0 0 1.967-1.642l1.718-9.445a2 2 0 0 0-1.968-2.357h-6.16l1.99-5.97a1.658 1.658 0 0 0-2.832-1.604l-6.01 7.012Z" stroke="#fff" stroke-width="2.3"/><path d="M1.222 21.778v-11" stroke="#fff" stroke-width="2.3" stroke-linecap="round"/></symbol><symbol fill="none" id="icon-phone" viewBox="0 0 16 16"><path d="M0 1a1 1 0 0 1 1-1h2.153a1 1 0 0 1 .986.836l.74 4.435a1 1 0 0 1-.54 1.06l-1.548.773a11.037 11.037 0 0 0 6.105 6.105l.774-1.548a1 1 0 0 1 1.059-.54l4.435.74a1 1 0 0 1 .836.986V15a1 1 0 0 1-1 1h-2C5.82 16 0 10.18 0 3V1Z" fill="#000"/></symbol><symbol id="icon-play-button" viewBox="0 0 24 24"><path fill="currentColor" d="M18.5 0h-13A5.506 5.506 0 0 0 0 5.5v13C0 21.532 2.467 24 5.5 24h13c3.033 0 5.5-2.468 5.5-5.5v-13C24 2.468 21.533 0 18.5 0zM17 12c0 .17-.086.328-.229.421l-7 4.5A.502.502 0 0 1 9 16.5v-9c0-.183.1-.352.26-.438a.494.494 0 0 1 .51.018l7 4.5c.144.092.23.25.23.42z"/></symbol><symbol fill="none" id="icon-play" viewBox="0 0 30 30"><circle cx="14.723" cy="15" r="14.723" fill="#fff"/><path d="m20.612 15-8.834 5.1V9.9l8.834 5.1Z" fill="#CA0813"/></symbol><symbol fill="currentColor" fill-rule="evenodd" stroke-linejoin="round" stroke-miterlimit="2" id="icon-quotation" viewBox="0 0 28 20"><path d="M0 19.333v-1.147c1.682-.983 2.971-2.125 3.866-3.424s1.42-2.572 1.573-3.817c-1.551-.24-2.753-.885-3.604-1.933S.557 6.838.557 5.636c0-1.508.551-2.823 1.655-3.949S4.686 0 6.324 0c1.901 0 3.369.683 4.407 2.048s1.557 2.9 1.557 4.604c0 1.573-.415 3.222-1.245 4.948s-2.157 3.293-3.981 4.702S2.884 18.721 0 19.333zm14.712 0v-1.147c1.726-1.027 3.026-2.185 3.9-3.473s1.365-2.545 1.474-3.768c-1.551-.24-2.747-.885-3.588-1.933s-1.261-2.174-1.261-3.375c0-.983.246-1.912.737-2.786A5.47 5.47 0 0 1 18.038.77a5.68 5.68 0 0 1 2.9-.77c1.333 0 2.452.339 3.358 1.016s1.584 1.518 2.032 2.523S27 5.581 27 6.652c0 1.573-.415 3.222-1.245 4.948s-2.151 3.288-3.965 4.686-4.172 2.414-7.078 3.047z" fill-rule="nonzero"/></symbol><symbol fill="none" id="icon-quote" viewBox="0 0 70 52"><path opacity=".1" d="M32.971.99H9.368v15.295C9.368 28.142 4.942 36.772 0 44.21l13.867 7.788c10.4-8.279 19.104-23.013 19.104-35.852V.99ZM70 .99H46.396v15.295c0 11.857-4.425 20.487-9.367 27.924l13.867 7.788C61.296 43.719 70 28.985 70 16.146V.99Z" fill="#A8A8A8"/></symbol><symbol fill="currentColor" style="fill-rule:evenodd;clip-rule:evenodd;stroke-linejoin:round;stroke-miterlimit:2" id="icon-site-logo" viewBox="0 0 613 113"><path d="M160.915 150.867v-4.687a9.024 9.024 0 0 0 2.769 1.604 8.908 8.908 0 0 0 3.017.534c.596 0 1.116-.053 1.56-.161.445-.107.816-.256 1.114-.447.297-.19.52-.415.666-.673.147-.259.22-.54.22-.843 0-.41-.117-.776-.352-1.098a3.777 3.777 0 0 0-.959-.894 10.1 10.1 0 0 0-1.443-.791 48.303 48.303 0 0 0-1.802-.776c-1.64-.684-2.864-1.519-3.669-2.505-.806-.986-1.209-2.178-1.209-3.574 0-1.094.22-2.034.659-2.82a5.607 5.607 0 0 1 1.795-1.941c.757-.508 1.633-.881 2.629-1.121a13.525 13.525 0 0 1 3.164-.359c1.094 0 2.063.066 2.908.198a11.45 11.45 0 0 1 2.336.608v4.38a7.08 7.08 0 0 0-1.149-.645 9.237 9.237 0 0 0-1.282-.461 9.888 9.888 0 0 0-1.311-.271 9.216 9.216 0 0 0-1.238-.088c-.537 0-1.025.051-1.465.154-.439.102-.81.247-1.113.432a2.15 2.15 0 0 0-.703.667 1.577 1.577 0 0 0-.249.871c0 .352.092.667.278.945.186.278.449.542.791.791s.757.493 1.245.732c.488.24 1.04.486 1.655.74.84.352 1.595.725 2.264 1.121a8.04 8.04 0 0 1 1.721 1.34 5.211 5.211 0 0 1 1.098 1.707c.254.639.381 1.384.381 2.234 0 1.171-.222 2.155-.666 2.951a5.422 5.422 0 0 1-1.809 1.934c-.762.493-1.648.847-2.659 1.062a15.36 15.36 0 0 1-3.201.322 17.82 17.82 0 0 1-3.288-.293c-1.04-.195-1.941-.488-2.703-.879Zm32.842.059c-1.533.742-3.535 1.113-6.006 1.113-3.223 0-5.757-.947-7.603-2.842-1.845-1.894-2.768-4.419-2.768-7.573 0-3.359 1.038-6.084 3.113-8.174s4.768-3.135 8.078-3.135c2.051 0 3.78.259 5.186.777v4.555c-1.406-.839-3.008-1.259-4.805-1.259-1.972 0-3.564.62-4.775 1.86-1.211 1.24-1.817 2.92-1.817 5.039 0 2.031.572 3.65 1.714 4.856 1.143 1.206 2.681 1.809 4.615 1.809 1.845 0 3.535-.449 5.068-1.347v4.321Zm22.134.747h-5.157L209.24 147h-7.47l-1.48 4.673h-5.127l7.647-21.006h5.61l7.471 21.006Zm-7.735-8.306-2.256-7.06c-.166-.528-.283-1.158-.351-1.89h-.117a7.983 7.983 0 0 1-.367 1.831l-2.285 7.119h5.376Zm22.5-8.847h-7.412v5.156h6.812v3.838h-6.812v8.159h-4.731v-21.006h12.143v3.853Zm15.601 0h-7.412v5.156h6.811v3.838h-6.811v8.159h-4.732v-21.006h12.144v3.853Zm12.334 17.519c-3.008 0-5.459-.979-7.354-2.937-1.894-1.958-2.841-4.509-2.841-7.654 0-3.32.961-6.006 2.885-8.056 1.924-2.051 4.473-3.077 7.647-3.077 2.998 0 5.422.982 7.273 2.945 1.85 1.963 2.776 4.551 2.776 7.763 0 3.301-.96 5.962-2.879 7.984-1.919 2.021-4.421 3.032-7.507 3.032Zm.205-17.651c-1.66 0-2.979.622-3.955 1.867-.977 1.245-1.465 2.893-1.465 4.944 0 2.08.488 3.726 1.465 4.937.976 1.211 2.256 1.816 3.838 1.816 1.631 0 2.925-.588 3.882-1.765.957-1.177 1.435-2.81 1.435-4.9 0-2.178-.464-3.872-1.391-5.083-.928-1.211-2.198-1.816-3.809-1.816Zm26.177 17.285h-12.51v-21.006h4.731v17.168h7.779v3.838Zm2.827 0v-21.006h7.441c7.461 0 11.192 3.413 11.192 10.239 0 3.272-1.018 5.884-3.055 7.837-2.036 1.953-4.748 2.93-8.137 2.93H287.8Zm4.731-17.153v13.315h2.344c2.051 0 3.66-.615 4.827-1.846 1.167-1.23 1.75-2.905 1.75-5.024 0-2.002-.578-3.577-1.736-4.724-1.157-1.148-2.78-1.721-4.87-1.721h-2.315Z" style="fill-rule:nonzero" transform="translate(-387.026 -404.143) scale(3.26068)"/><g transform="scale(.2741)"><clipPath id="a"><path d="M0 0h310.413v410H0z"/></clipPath><g clip-path="url(#a)"><path d="M549.794 78.703h-300a5 5 0 0 0-5 5v200a5 5 0 0 0 5 5h95v90h-95a5 5 0 0 0-5 5v100a5 5 0 0 0 5 5h300.412a5.001 5.001 0 0 0 4.588-6.988V283.697a5 5 0 0 0-5-5h-97.923l-89.999-89.994h187.922a5 5 0 0 0 5-5v-100a4.97 4.97 0 0 0-.466-2.108l-.027-.059-.021-.042-.008-.016-.008-.016-.017-.035-.018-.034-.013-.024-.013-.024-.013-.025-.014-.026-.018-.033-.017-.029-.01-.018-.012-.02-.023-.04-.02-.032-.006-.011-.009-.015-.03-.048-.021-.033-.004-.007-.007-.011-.035-.054-.021-.031-.049-.072-.021-.028-.052-.074-.021-.026-.005-.007-.05-.067-.018-.022-.007-.008-.054-.069-.014-.016-.011-.013-.057-.068-.084-.095-.005-.006-.083-.088-.018-.019-.065-.066-.007-.007-.029-.028-.05-.049-.013-.013-.036-.033-.038-.036-.009-.007-.012-.011-.04-.036-.029-.025-.009-.008-.018-.015-.044-.037-.021-.018-.009-.008-.023-.019-.046-.036-.015-.012-.009-.007-.029-.023-.046-.034-.012-.009-.008-.007-.035-.026-.044-.031-.01-.007-.009-.006-.039-.028-.042-.028-.009-.007-.009-.006-.043-.029-.039-.025-.009-.006-.013-.008-.044-.028-.034-.021-.012-.007-.017-.01-.043-.026-.029-.017-.014-.008-.025-.014-.039-.022-.023-.013-.019-.01-.035-.019-.032-.017-.016-.008-.024-.013-.049-.024-.02-.01-.01-.005-.03-.015-.065-.03-.008-.004a4.968 4.968 0 0 0-2.094-.459Zm-87.523 310 82.523 82.517v-82.517h-82.523Zm-107.477-10.006h83.334l-83.334-83.388v83.388Zm190-82.504-82.504 82.504h82.504v-82.504Zm-90-7.496v83.354l83.354-83.354h-83.354Zm-10 82.524v-82.524h-82.471l82.471 82.524Zm-190-92.518h83.405l-83.405-83.459v83.459Zm100-82.936v82.923h82.928l-82.928-82.923Zm-92.4-7.064 82.4 82.453v-82.453h-82.4Zm92.4-10h83.312l-83.312-82.964v82.964Zm190-82.894-82.558 82.894h82.558V95.809Zm-282.44 82.894h82.44V95.82l-82.44 82.883Zm-7.56-6.579 82.974-83.421h-82.974v83.421Zm200-83.421v83.302l82.963-83.302h-82.963Zm-10 82.548V88.703h-82.893l82.893 82.548Z" transform="translate(-244.794 -78.703)"/></g></g></symbol><symbol id="icon-smartphone" viewBox="0 0 24 24"><g class="nc-icon-wrapper" fill="none" stroke="currentColor" stroke-linecap="round" stroke-linejoin="round" stroke-width="1.5"><path class="a" d="M18 .75a5.226 5.226 0 0 0-3.937 8.69l-.657 3.779 3.423-2.111A5.246 5.246 0 1 0 18 .75z"/><circle class="a" cx="8.232" cy="15.375" r="3.375"/><path class="a" d="M13.46 23.243A6.062 6.062 0 0 0 3 23.25m15-9v9m-17.25 0V3.75a3 3 0 0 1 3-3h7.5m-10.5 6h9m-3-3h3m10.5 1.821A2.107 2.107 0 0 1 18 7.5a2.107 2.107 0 0 1-2.25-1.929"/></g></symbol><symbol fill="none" id="icon-support" viewBox="0 0 32 34"><path d="M28 18h-3.333a2 2 0 0 0-2 2v4a2 2 0 0 0 2 2H26a2 2 0 0 0 2-2v-6c0-6.627-5.373-12-12-12S4 11.373 4 18v6a2 2 0 0 0 2 2h1.333a2 2 0 0 0 2-2v-4a2 2 0 0 0-2-2H4" stroke="#fff" stroke-width="2.3"/><path d="M28 20.667V26s0 4-2.667 4h-6.666" stroke="#fff" stroke-width="2.3" stroke-linecap="round" stroke-linejoin="round"/></symbol></svg>