<svg clip-rule="evenodd" fill-rule="evenodd" stroke-linejoin="round" stroke-miterlimit="2" version="1.1" viewBox="0 0 1080 1080" xml:space="preserve" xmlns="http://www.w3.org/2000/svg">
    
        <g transform="matrix(1.2894 -7.1908e-19 -7.0911e-18 3.1326 -42.096 -564.54)">
            <path d="m412.67 196.18c0-8.809-17.376-15.961-38.778-15.961h-302.47c-21.402 0-38.778 7.152-38.778 15.961v312.84c0 8.809 17.376 15.961 38.778 15.961h302.47c21.402 0 38.778-7.152 38.778-15.961v-312.84z" fill="currentColor"/>
        </g>
        <g transform="matrix(1.2894 -7.1908e-19 -7.0911e-18 3.1326 547.9 -564.54)">
            <path d="m412.67 196.18c0-8.809-17.376-15.961-38.778-15.961h-302.47c-21.402 0-38.778 7.152-38.778 15.961v312.84c0 8.809 17.376 15.961 38.778 15.961h302.47c21.402 0 38.778-7.152 38.778-15.961v-312.84z" fill="currentColor"/>
        </g>
    
</svg>
