<svg clip-rule="evenodd" fill-rule="evenodd" stroke-linejoin="round" stroke-miterlimit="2" version="1.1" viewBox="0 0 1080 1080" xml:space="preserve" xmlns="http://www.w3.org/2000/svg">
    <g transform="matrix(.26314 5.3949e-33 2.1551e-32 3.1367 -8.5911 -565.3)">
        <path d="m412.67 189.46c0-5.103-49.382-9.245-110.21-9.245h-159.61c-60.825 0-110.21 4.142-110.21 9.245v326.27c0 5.102 49.382 9.245 110.21 9.245h159.61c60.825 0 110.21-4.143 110.21-9.245v-326.27z" fill="currentColor"/>
    </g>
    <g transform="matrix(.26314 5.3949e-33 2.1551e-32 3.1367 971.41 -565.3)">
        <path d="m412.67 189.46c0-5.103-49.382-9.245-110.21-9.245h-159.61c-60.825 0-110.21 4.142-110.21 9.245v326.27c0 5.102 49.382 9.245 110.21 9.245h159.61c60.825 0 110.21-4.143 110.21-9.245v-326.27z" fill="currentColor"/>
    </g>
    <g transform="matrix(1.6638 0 0 1.7484 -358.45 -830.59)">
        <path d="m406.66 513.66h266.68v-28.614c0-4.045 2.437-7.691 6.173-9.239 3.737-1.548 8.038-0.692 10.898 2.168 17.664 17.664 44.4 44.4 57.022 57.021 1.875 1.875 2.928 4.419 2.928 7.071s-1.053 5.196-2.928 7.071c-12.622 12.621-39.358 39.357-57.022 57.021-2.86 2.86-7.161 3.716-10.898 2.168-3.736-1.548-6.173-5.194-6.173-9.239v-28.614h-266.68v28.614c0 4.045-2.437 7.691-6.173 9.239-3.737 1.548-8.038 0.692-10.898-2.168-17.664-17.664-44.4-44.4-57.022-57.021-1.875-1.875-2.928-4.419-2.928-7.071s1.053-5.196 2.928-7.071c12.622-12.621 39.358-39.357 57.022-57.021 2.86-2.86 7.161-3.716 10.898-2.168 3.736 1.548 6.173 5.194 6.173 9.239v28.614z" fill="currentColor"/>
    </g>
    <g transform="matrix(2.2957e-17 .36998 -1.3183 7.8685e-17 892.06 294.62)">
        <path d="m412.67 201.55c0-11.773-34.056-21.331-76.005-21.331h-228.01c-41.948 0-76.005 9.558-76.005 21.331v302.1c0 11.773 34.057 21.331 76.005 21.331h228.01c41.949 0 76.005-9.558 76.005-21.331v-302.1z" fill="currentColor"/>
    </g>
    <g transform="matrix(2.3058e-17 .36998 -1.7548 1.0542e-16 1121.2 505.52)">
        <path d="m412.67 196.24c0-8.844-34.056-16.024-76.005-16.024h-228.01c-41.948 0-76.005 7.18-76.005 16.024v312.72c0 8.845 34.057 16.025 76.005 16.025h228.01c41.949 0 76.005-7.18 76.005-16.025v-312.72z" fill="currentColor"/>
    </g>
    <g transform="matrix(2.3114e-17 .36998 -2.0014 1.2051e-16 1250.7 927.32)">
        <path d="m412.67 194.27c0-7.755-34.056-14.05-76.005-14.05h-228.01c-41.948 0-76.005 6.295-76.005 14.05v316.66c0 7.755 34.057 14.051 76.005 14.051h228.01c41.949 0 76.005-6.296 76.005-14.051v-316.66z" fill="currentColor"/>
    </g>
    <g transform="matrix(2.2918e-17 .36998 -1.1467 6.8182e-17 802.02 716.42)">
        <path d="m412.67 204.74c0-13.534-34.056-24.522-76.005-24.522h-228.01c-41.948 0-76.005 10.988-76.005 24.522v295.72c0 13.534 34.057 24.522 76.005 24.522h228.01c41.949 0 76.005-10.988 76.005-24.522v-295.72z" fill="currentColor"/>
    </g>
</svg>
