<svg clip-rule="evenodd" fill-rule="evenodd" stroke-linejoin="round" stroke-miterlimit="2" version="1.1" viewBox="0 0 1080 1080" xml:space="preserve" xmlns="http://www.w3.org/2000/svg">
    
        <g transform="matrix(-1.5788 -1.9295e-16 2.2181e-16 -1.7403 771.55 1033.6)">
            <path d="m412.67 208.95c0-15.857-14.19-28.73-31.668-28.73h-316.69c-17.479 0-31.669 12.873-31.669 28.73v287.3c0 15.856 14.19 28.73 31.669 28.73h316.69c17.478 0 31.668-12.874 31.668-28.73v-287.3zm-15.834 0v287.3c0 7.928-7.095 14.365-15.834 14.365h-316.69c-8.739 0-15.835-6.437-15.835-14.365v-287.3c0-7.928 7.096-14.365 15.835-14.365h316.69c8.739 0 15.834 6.437 15.834 14.365z" fill="currentColor"/>
        </g>
        <path d="m120 400h-70c-27.596 0-50-22.404-50-50v-300c0-27.596 22.404-50 50-50h300c27.596 0 50 22.404 50 50v70h-25v-70c0-13.798-11.202-25-25-25h-300c-13.798 0-25 11.202-25 25v300c0 13.798 11.202 25 25 25h70v25z" fill="currentColor"/>
        <g transform="matrix(-2.1051 -2.5727e-16 2.9575e-16 -2.3204 1148.7 1498.2)">
            <path d="m412.67 201.76c0-11.892-10.642-21.547-23.751-21.547h-332.52c-13.109 0-23.752 9.655-23.752 21.547v301.67c0 11.893 10.643 21.548 23.752 21.548h332.52c13.109 0 23.751-9.655 23.751-21.548v-301.67z" fill="currentColor"/>
        </g>
    
</svg>
