<svg clip-rule="evenodd" fill-rule="evenodd" stroke-linejoin="round" stroke-miterlimit="2" version="1.1" viewBox="0 0 1080 1080" xml:space="preserve" xmlns="http://www.w3.org/2000/svg">
    
        <g transform="matrix(.28326 0 0 2.7199 -99.606 -643.91)">
            <path d="m831.78 249.24c0-6.899-53.785-12.5-120.03-12.5h-240.06c-66.248 0-120.03 5.601-120.03 12.5v372.07c0 6.899 53.784 12.5 120.03 12.5h240.06c66.248 0 120.03-5.601 120.03-12.5v-372.07z" fill="currentColor"/>
        </g>
        <g transform="matrix(.28326 0 0 2.7199 136.39 -643.91)">
            <path d="m831.78 249.24c0-6.899-53.785-12.5-120.03-12.5h-240.06c-66.248 0-120.03 5.601-120.03 12.5v372.07c0 6.899 53.784 12.5 120.03 12.5h240.06c66.248 0 120.03-5.601 120.03-12.5v-372.07z" fill="currentColor"/>
        </g>
        <g transform="matrix(.28326 0 0 2.7199 372.39 -643.91)">
            <path d="m831.78 249.24c0-6.899-53.785-12.5-120.03-12.5h-240.06c-66.248 0-120.03 5.601-120.03 12.5v372.07c0 6.899 53.784 12.5 120.03 12.5h240.06c66.248 0 120.03-5.601 120.03-12.5v-372.07z" fill="currentColor"/>
        </g>
        <g transform="matrix(.28326 0 0 2.7199 608.39 -643.91)">
            <path d="m831.78 249.24c0-6.899-53.785-12.5-120.03-12.5h-240.06c-66.248 0-120.03 5.601-120.03 12.5v372.07c0 6.899 53.784 12.5 120.03 12.5h240.06c66.248 0 120.03-5.601 120.03-12.5v-372.07z" fill="currentColor"/>
        </g>
        <g transform="matrix(.28326 0 0 2.7199 844.39 -643.91)">
            <path d="m831.78 249.24c0-6.899-53.785-12.5-120.03-12.5h-240.06c-66.248 0-120.03 5.601-120.03 12.5v372.07c0 6.899 53.784 12.5 120.03 12.5h240.06c66.248 0 120.03-5.601 120.03-12.5v-372.07z" fill="currentColor"/>
        </g>
    
</svg>
