<svg clip-rule="evenodd" fill-rule="evenodd" stroke-linejoin="round" stroke-miterlimit="2" version="1.1" viewBox="0 0 1080 1080" xml:space="preserve" xmlns="http://www.w3.org/2000/svg">
    <g transform="matrix(.77188 -7.1908e-19 -4.245e-18 3.1326 368.13 -564.54)">
        <path d="m412.67 198.95c0-10.337-34.056-18.728-76.005-18.728h-228.01c-41.948 0-76.005 8.391-76.005 18.728v307.31c0 10.336 34.057 18.728 76.005 18.728h228.01c41.949 0 76.005-8.392 76.005-18.728v-307.31z" fill="currentColor"/>
    </g>
    <g transform="matrix(.77188 -7.1908e-19 -4.245e-18 3.1326 761.47 -564.54)">
        <path d="m412.67 198.95c0-10.337-34.056-18.728-76.005-18.728h-228.01c-41.948 0-76.005 8.391-76.005 18.728v307.31c0 10.336 34.057 18.728 76.005 18.728h228.01c41.949 0 76.005-8.392 76.005-18.728v-307.31z" fill="currentColor"/>
    </g>
    <g transform="matrix(.77188 -7.1908e-19 -4.245e-18 3.1326 -25.2 -564.54)">
        <path d="m412.67 198.95c0-10.337-34.056-18.728-76.005-18.728h-228.01c-41.948 0-76.005 8.391-76.005 18.728v307.31c0 10.336 34.057 18.728 76.005 18.728h228.01c41.949 0 76.005-8.392 76.005-18.728v-307.31z" fill="currentColor"/>
    </g>
</svg>
