<svg clip-rule="evenodd" fill-rule="evenodd" stroke-linejoin="round" stroke-miterlimit="2" version="1.1" viewBox="0 0 1080 1080" xml:space="preserve" xmlns="http://www.w3.org/2000/svg">
    
        <g transform="matrix(-1.0526 -1.2864e-16 1.4787e-16 -1.1602 434.36 609.09)">
            <path d="m412.67 223.31c0-23.785-21.285-43.095-47.503-43.095h-285.02c-26.217 0-47.503 19.31-47.503 43.095v258.57c0 23.785 21.286 43.096 47.503 43.096h285.02c26.218 0 47.503-19.311 47.503-43.096v-258.57z" fill="currentColor"/>
        </g>
        <g transform="matrix(-1.5788 -1.9295e-16 2.2181e-16 -1.7403 771.55 1033.6)">
            <path d="m412.67 208.95c0-15.857-14.19-28.73-31.668-28.73h-316.69c-17.479 0-31.669 12.873-31.669 28.73v287.3c0 15.856 14.19 28.73 31.669 28.73h316.69c17.478 0 31.668-12.874 31.668-28.73v-287.3zm-15.834 0v287.3c0 7.928-7.095 14.365-15.834 14.365h-316.69c-8.739 0-15.835-6.437-15.835-14.365v-287.3c0-7.928 7.096-14.365 15.835-14.365h316.69c8.739 0 15.834 6.437 15.834 14.365z" fill="currentColor"/>
        </g>
        <path d="m720 280h310c27.6 0 50 22.404 50 50v700c0 27.6-22.4 50-50 50h-700c-27.596 0-50-22.4-50-50v-310h25v310c0 13.8 11.202 25 25 25h700c13.8 0 25-11.2 25-25v-700c0-13.798-11.2-25-25-25h-310v-25z" fill="currentColor"/>
    
</svg>
