<svg clip-rule="evenodd" fill-rule="evenodd" stroke-linejoin="round" stroke-miterlimit="2" version="1.1" viewBox="0 0 1080 1080" xml:space="preserve" xmlns="http://www.w3.org/2000/svg">
    <g transform="matrix(-2.8419 -3.4732e-16 3.9926e-16 -3.1326 1172.8 1644.6)">
        <path d="m412.67 196.18c0-8.809-7.883-15.961-17.593-15.961h-344.84c-9.71 0-17.594 7.152-17.594 15.961v312.84c0 8.809 7.884 15.961 17.594 15.961h344.84c9.71 0 17.593-7.152 17.593-15.961v-312.84zm-8.797 0v312.84c0 4.404-3.941 7.98-8.796 7.98h-344.84c-4.855 0-8.797-3.576-8.797-7.98v-312.84c0-4.405 3.942-7.981 8.797-7.981h344.84c4.855 0 8.796 3.576 8.796 7.981z" fill="currentColor"/>
    </g>
    <g transform="matrix(1.4911 1.4911 -.19802 .19802 -361.04 -585.26)">
        <path d="m935.56 476.88c0-49.271-5.312-89.273-11.856-89.273h-488.46c-6.544 0-11.856 40.002-11.856 89.273v178.54c0 49.271 5.312 89.272 11.856 89.272h488.46c6.544 0 11.856-40.001 11.856-89.272v-178.54z" fill="currentColor"/>
    </g>
    <g transform="matrix(-1.4911 1.4911 -.19802 -.19802 1665.3 -361.04)">
        <path d="m935.56 476.88c0-49.271-5.312-89.273-11.856-89.273h-488.46c-6.544 0-11.856 40.002-11.856 89.273v178.54c0 49.271 5.312 89.272 11.856 89.272h488.46c6.544 0 11.856-40.001 11.856-89.272v-178.54z" fill="currentColor"/>
    </g>
</svg>
