<svg clip-rule="evenodd" fill-rule="evenodd" stroke-linejoin="round" stroke-miterlimit="2" version="1.1" viewBox="0 0 1080 1080" xml:space="preserve" xmlns="http://www.w3.org/2000/svg">
    <g transform="matrix(-1.7484 0 0 1.7484 1484.2 -404.15)">
        <g transform="matrix(.1505 0 0 1.7916 226.24 -91.736)">
            <path d="m412.67 189.48c0-5.109-49.382-9.257-110.21-9.257h-159.61c-60.825 0-110.21 4.148-110.21 9.257v326.25c0 5.11 49.382 9.258 110.21 9.258h159.61c60.825 0 110.21-4.148 110.21-9.258v-326.25z" fill="currentColor"/>
        </g>
        <g transform="matrix(1.8317e-17 .29553 -.96158 5.7255e-17 850.35 221.5)">
            <path d="m412.67 203.58c0-12.892-34.056-23.359-76.005-23.359h-228.01c-41.948 0-76.005 10.467-76.005 23.359v298.05c0 12.892 34.057 23.359 76.005 23.359h228.01c41.949 0 76.005-10.467 76.005-23.359v-298.05z" fill="currentColor"/>
        </g>
        <g transform="matrix(1.839e-17 .29553 -1.28 7.6754e-17 1017.5 389.97)">
            <path d="m412.67 197.76c0-9.684-34.056-17.547-76.005-17.547h-228.01c-41.948 0-76.005 7.863-76.005 17.547v309.67c0 9.685 34.057 17.548 76.005 17.548h228.01c41.949 0 76.005-7.863 76.005-17.548v-309.67z" fill="currentColor"/>
        </g>
        <g transform="matrix(1.8431e-17 .29553 -1.4599 8.7766e-17 1111.9 726.89)">
            <path d="m412.67 195.6c0-8.492-34.056-15.386-76.005-15.386h-228.01c-41.948 0-76.005 6.894-76.005 15.386v313.99c0 8.492 34.057 15.386 76.005 15.386h228.01c41.949 0 76.005-6.894 76.005-15.386v-313.99z" fill="currentColor"/>
        </g>
        <g transform="matrix(1.8288e-17 .29553 -.83647 4.9594e-17 784.67 558.43)">
            <path d="m412.67 207.07c0-14.821-34.056-26.853-76.005-26.853h-228.01c-41.948 0-76.005 12.032-76.005 26.853v291.06c0 14.82 34.057 26.853 76.005 26.853h228.01c41.949 0 76.005-12.033 76.005-26.853v-291.06z" fill="currentColor"/>
        </g>
    </g>
</svg>
