<svg clip-rule="evenodd" fill-rule="evenodd" stroke-linejoin="round" stroke-miterlimit="2" version="1.1" viewBox="0 0 1080 1080" xml:space="preserve" xmlns="http://www.w3.org/2000/svg">
    <g transform="matrix(1.7484 0 0 1.7484 -404.15 -404.15)">
        <g transform="matrix(9.2156e-18 -.1505 1.7916 1.0971e-16 -91.736 768.12)">
            <path d="m412.67 189.48c0-5.109-49.382-9.257-110.21-9.257h-159.61c-60.825 0-110.21 4.148-110.21 9.257v326.25c0 5.11 49.382 9.258 110.21 9.258h159.61c60.825 0 110.21-4.148 110.21-9.258v-326.25z" fill="currentColor"/>
        </g>
        <g transform="matrix(8.9197e-17 -1.4567 1.4567 8.9197e-17 151.07 1233.3)">
            <path d="m508.28 304.29v55.052c0 2.382-1.435 4.529-3.636 5.441s-4.734 0.408-6.418-1.277c-22.653-22.653-76.91-76.91-92.352-92.351-2.3-2.3-2.3-6.029 0-8.329l92.352-92.352c1.684-1.685 4.217-2.188 6.418-1.277 2.201 0.912 3.636 3.059 3.636 5.441v55.053h114.97c3.253 0 5.89 2.636 5.89 5.889v62.82c0 3.253-2.637 5.89-5.89 5.89h-114.97z" fill="currentColor"/>
        </g>
    </g>
</svg>
