<svg clip-rule="evenodd" fill-rule="evenodd" stroke-linejoin="round" stroke-miterlimit="2" version="1.1" viewBox="0 0 1080 1080" xml:space="preserve" xmlns="http://www.w3.org/2000/svg">
    <g transform="matrix(.26314 3.0456e-33 2.1551e-32 1.7708 -8.5911 150.37)">
        <path d="m412.67 196.6c0-9.039-49.382-16.377-110.21-16.377h-159.61c-60.825 0-110.21 7.338-110.21 16.377v312.01c0 9.039 49.382 16.377 110.21 16.377h159.61c60.825 0 110.21-7.338 110.21-16.377v-312.01z" fill="currentColor"/>
    </g>
    <g transform="matrix(1.6113e-17 .26314 -3.1326 1.9182e-16 1644.6 460.91)">
        <path d="m412.67 189.48c0-5.109-49.382-9.257-110.21-9.257h-159.61c-60.825 0-110.21 4.148-110.21 9.257v326.25c0 5.11 49.382 9.258 110.21 9.258h159.61c60.825 0 110.21-4.148 110.21-9.258v-326.25z" fill="currentColor"/>
    </g>
    <g transform="matrix(2.567 0 0 2.6976 -846.18 -1290.2)">
        <path d="m406.66 513.66h266.68v-28.614c0-4.045 2.437-7.691 6.173-9.239 3.737-1.548 8.038-0.692 10.898 2.168 17.664 17.664 44.4 44.4 57.022 57.021 1.875 1.875 2.928 4.419 2.928 7.071s-1.053 5.196-2.928 7.071c-12.622 12.621-39.358 39.357-57.022 57.021-2.86 2.86-7.161 3.716-10.898 2.168-3.736-1.548-6.173-5.194-6.173-9.239v-28.614h-266.68v28.614c0 4.045-2.437 7.691-6.173 9.239-3.737 1.548-8.038 0.692-10.898-2.168-17.664-17.664-44.4-44.4-57.022-57.021-1.875-1.875-2.928-4.419-2.928-7.071s1.053-5.196 2.928-7.071c12.622-12.621 39.358-39.357 57.022-57.021 2.86-2.86 7.161-3.716 10.898-2.168 3.736 1.548 6.173 5.194 6.173 9.239v28.614z" fill="currentColor"/>
    </g>
    <g transform="matrix(.26314 3.0456e-33 2.1551e-32 1.7708 971.41 150.37)">
        <path d="m412.67 196.6c0-9.039-49.382-16.377-110.21-16.377h-159.61c-60.825 0-110.21 7.338-110.21 16.377v312.01c0 9.039 49.382 16.377 110.21 16.377h159.61c60.825 0 110.21-7.338 110.21-16.377v-312.01z" fill="currentColor"/>
    </g>
    <g transform="matrix(-1 0 0 .65746 1093.9 495.07)">
        <path d="m50 772.19 344.8-346.8 197.19 135.83 200.33-240.67 251.56 320.48-13.87 248.64h-980v-117.49z" fill="currentColor"/>
    </g>
    <g transform="matrix(1.1527 0 0 1.1527 -77.322 -89.513)">
        <circle cx="769.49" cy="641.66" r="48.329" fill="currentColor"/>
    </g>
</svg>
