<svg clip-rule="evenodd" fill-rule="evenodd" stroke-linejoin="round" stroke-miterlimit="2" version="1.1" viewBox="0 0 1080 1080" xml:space="preserve" xmlns="http://www.w3.org/2000/svg">
    
        <g transform="matrix(1.2894 -7.1908e-19 -7.0911e-18 3.1326 547.9 -564.54)">
            <path d="m412.67 211.5c0-17.266-34.056-31.284-76.005-31.284h-228.01c-41.948 0-76.005 14.018-76.005 31.284v282.2c0 17.266 34.057 31.284 76.005 31.284h228.01c41.949 0 76.005-14.018 76.005-31.284v-282.2z" fill="currentColor"/>
        </g>
        <g transform="matrix(1.2894 -7.1908e-19 -7.0911e-18 3.1326 -42.096 -564.54)">
            <path d="m412.67 211.5c0-17.266-34.056-31.284-76.005-31.284h-228.01c-41.948 0-76.005 14.018-76.005 31.284v282.2c0 17.266 34.057 31.284 76.005 31.284h228.01c41.949 0 76.005-14.018 76.005-31.284v-282.2z" fill="currentColor"/>
        </g>
    
</svg>
