<svg clip-rule="evenodd" fill-rule="evenodd" stroke-linejoin="round" stroke-miterlimit="2" version="1.1" viewBox="0 0 1080 1080" xml:space="preserve" xmlns="http://www.w3.org/2000/svg">
    
        <g transform="matrix(-1.0526 -1.2864e-16 1.4787e-16 -1.1602 434.36 609.09)">
            <path d="m412.67 223.31c0-23.785-21.285-43.095-47.503-43.095h-285.02c-26.217 0-47.503 19.31-47.503 43.095v258.57c0 23.785 21.286 43.096 47.503 43.096h285.02c26.218 0 47.503-19.311 47.503-43.096v-258.57zm-23.751 0v258.57c0 11.893-10.643 21.548-23.752 21.548h-285.02c-13.109 0-23.751-9.655-23.751-21.548v-258.57c0-11.892 10.642-21.548 23.751-21.548h285.02c13.109 0 23.752 9.656 23.752 21.548z" fill="currentColor"/>
        </g>
        <g transform="matrix(-1.5788 -1.9295e-16 2.2181e-16 -1.7403 771.55 1033.6)">
            <path d="m412.67 208.95c0-15.857-14.19-28.73-31.668-28.73h-316.69c-17.479 0-31.669 12.873-31.669 28.73v287.3c0 15.856 14.19 28.73 31.669 28.73h316.69c17.478 0 31.668-12.874 31.668-28.73v-287.3z" fill="currentColor"/>
        </g>
        <g transform="matrix(-2.1051 -2.5727e-16 2.9575e-16 -2.3204 1148.7 1498.2)">
            <path d="m412.67 201.76c0-11.892-10.642-21.547-23.751-21.547h-332.52c-13.109 0-23.752 9.655-23.752 21.547v301.67c0 11.893 10.643 21.548 23.752 21.548h332.52c13.109 0 23.751-9.655 23.751-21.548v-301.67zm-11.875 0v301.67c0 5.946-5.322 10.774-11.876 10.774h-332.52c-6.555 0-11.876-4.828-11.876-10.774v-301.67c0-5.946 5.321-10.773 11.876-10.773h332.52c6.554 0 11.876 4.827 11.876 10.773z" fill="currentColor"/>
        </g>
    
</svg>
