<svg clip-rule="evenodd" fill-rule="evenodd" stroke-linejoin="round" stroke-miterlimit="2" version="1.1" viewBox="0 0 1080 1080" xml:space="preserve" xmlns="http://www.w3.org/2000/svg">
    <g transform="matrix(-1 -1.2246e-16 1.2246e-16 -1 1080 1080)">
        <g transform="matrix(1.5999 -7.1908e-19 -8.7988e-18 3.1326 -52.234 -564.54)">
            <path d="m412.67 196.18c0-8.809-14.003-15.961-31.252-15.961h-317.52c-17.248 0-31.252 7.152-31.252 15.961v312.84c0 8.809 14.004 15.961 31.252 15.961h317.52c17.249 0 31.252-7.152 31.252-15.961v-312.84z" fill="currentColor"/>
        </g>
        <g transform="matrix(.97888 -7.1908e-19 -5.3834e-18 3.1326 676.04 -564.54)">
            <path d="m412.67 196.18c0-8.809-22.887-15.961-51.078-15.961h-277.87c-28.191 0-51.079 7.152-51.079 15.961v312.84c0 8.809 22.888 15.961 51.079 15.961h277.87c28.191 0 51.078-7.152 51.078-15.961v-312.84z" fill="currentColor"/>
        </g>
    </g>
</svg>
