<svg clip-rule="evenodd" fill-rule="evenodd" stroke-linejoin="round" stroke-miterlimit="2" version="1.1" viewBox="0 0 1080 1080" xml:space="preserve" xmlns="http://www.w3.org/2000/svg">
    <g transform="matrix(1.7484 0 0 1.7484 -404.15 -404.15)">
        <g transform="matrix(9.2156e-18 -.1505 1.7916 1.0971e-16 -91.736 573.51)">
            <path d="m412.67 189.48c0-5.109-49.382-9.257-110.21-9.257h-159.61c-60.825 0-110.21 4.148-110.21 9.257v326.25c0 5.11 49.382 9.258 110.21 9.258h159.61c60.825 0 110.21-4.148 110.21-9.258v-326.25z" fill="currentColor"/>
        </g>
        <g transform="matrix(6.6537e-17 -1.0866 1.0866 6.6537e-17 249.88 914.79)">
            <path d="m508.28 304.29v56.563c0 2.129-1.283 4.048-3.249 4.863-1.967 0.815-4.231 0.364-5.736-1.141-22.178-22.177-78.81-78.809-93.864-93.863-0.987-0.987-1.541-2.326-1.541-3.722s0.554-2.735 1.541-3.722c15.054-15.054 71.686-71.686 93.864-93.863 1.505-1.505 3.769-1.956 5.736-1.141 1.966 0.815 3.249 2.734 3.249 4.863v56.564h115.6c1.396 0 2.735 0.554 3.722 1.541s1.542 2.326 1.542 3.722v64.072c0 1.396-0.555 2.735-1.542 3.722s-2.326 1.542-3.722 1.542h-115.6z" fill="currentColor"/>
        </g>
        <g transform="matrix(-1.9961e-16 1.0866 -1.0866 -1.9961e-16 830.12 165.21)">
            <path d="m508.28 304.29v56.563c0 2.129-1.283 4.048-3.249 4.863-1.967 0.815-4.231 0.364-5.736-1.141-22.178-22.177-78.81-78.809-93.864-93.863-0.987-0.987-1.541-2.326-1.541-3.722s0.554-2.735 1.541-3.722c15.054-15.054 71.686-71.686 93.864-93.863 1.505-1.505 3.769-1.956 5.736-1.141 1.966 0.815 3.249 2.734 3.249 4.863v56.564h115.6c1.396 0 2.735 0.554 3.722 1.541s1.542 2.326 1.542 3.722v64.072c0 1.396-0.555 2.735-1.542 3.722s-2.326 1.542-3.722 1.542h-115.6z" fill="currentColor"/>
        </g>
    </g>
</svg>
