<svg clip-rule="evenodd" fill-rule="evenodd" stroke-linejoin="round" stroke-miterlimit="2" version="1.1" viewBox="0 0 1080 1080" xml:space="preserve" xmlns="http://www.w3.org/2000/svg">
    
        <g transform="matrix(.51312 -7.1908e-19 -2.822e-18 3.1326 278.25 -564.54)">
            <path d="m412.67 192.67c0-6.871-34.056-12.449-76.005-12.449h-228.01c-41.948 0-76.005 5.578-76.005 12.449v319.86c0 6.871 34.057 12.45 76.005 12.45h228.01c41.949 0 76.005-5.579 76.005-12.45v-319.86z" fill="currentColor"/>
        </g>
        <g transform="matrix(.51312 -7.1908e-19 -2.822e-18 3.1326 868.25 -564.54)">
            <path d="m412.67 192.67c0-6.871-34.056-12.449-76.005-12.449h-228.01c-41.948 0-76.005 5.578-76.005 12.449v319.86c0 6.871 34.057 12.45 76.005 12.45h228.01c41.949 0 76.005-5.579 76.005-12.45v-319.86z" fill="currentColor"/>
        </g>
        <g transform="matrix(.51312 -7.1908e-19 -2.822e-18 3.1326 -16.753 -564.54)">
            <path d="m412.67 192.67c0-6.871-34.056-12.449-76.005-12.449h-228.01c-41.948 0-76.005 5.578-76.005 12.449v319.86c0 6.871 34.057 12.45 76.005 12.45h228.01c41.949 0 76.005-5.579 76.005-12.45v-319.86z" fill="currentColor"/>
        </g>
        <g transform="matrix(.51312 -7.1908e-19 -2.822e-18 3.1326 573.25 -564.54)">
            <path d="m412.67 192.67c0-6.871-34.056-12.449-76.005-12.449h-228.01c-41.948 0-76.005 5.578-76.005 12.449v319.86c0 6.871 34.057 12.45 76.005 12.45h228.01c41.949 0 76.005-5.579 76.005-12.45v-319.86z" fill="currentColor"/>
        </g>
    
</svg>
