<svg clip-rule="evenodd" fill-rule="evenodd" stroke-linejoin="round" stroke-miterlimit="2" version="1.1" viewBox="0 0 1080 1080" xml:space="preserve" xmlns="http://www.w3.org/2000/svg">
    <g transform="matrix(-1 -1.2246e-16 1.2246e-16 -1 1080 1080)">
        <g transform="matrix(1.8069 -7.1908e-19 -9.9372e-18 3.1326 -58.992 -564.54)">
            <path d="m412.67 196.18c0-8.809-12.399-15.961-27.671-15.961h-324.68c-15.273 0-27.672 7.152-27.672 15.961v312.84c0 8.809 12.399 15.961 27.672 15.961h324.68c15.272 0 27.671-7.152 27.671-15.961v-312.84z" fill="currentColor"/>
        </g>
        <g transform="matrix(.77188 -7.1908e-19 -4.245e-18 3.1326 761.47 -564.54)">
            <path d="m412.67 196.18c0-8.809-29.025-15.961-64.777-15.961h-250.47c-35.751 0-64.777 7.152-64.777 15.961v312.84c0 8.809 29.026 15.961 64.777 15.961h250.47c35.752 0 64.777-7.152 64.777-15.961v-312.84z" fill="currentColor"/>
        </g>
    </g>
</svg>
