<svg width="26" height="24" viewBox="0 0 26 24" fill="none" xmlns="http://www.w3.org/2000/svg">
<path fill-rule="evenodd" clip-rule="evenodd" d="M13 22L13 4.5C13 4.5 10.5 2 7.99998 2C5.49998 2 1.74998 4.5 1.74998 4.5V22C1.74998 22 5.49997 19.5 7.99998 19.5C10.5 19.5 13 22 13 22Z" stroke="white" stroke-width="2.3" stroke-linecap="round" stroke-linejoin="round"/>
<path fill-rule="evenodd" clip-rule="evenodd" d="M13 22L13 4.5C13 4.5 15.5 2 18 2C20.5 2 24.25 4.5 24.25 4.5V22C24.25 22 20.5 19.5 18 19.5C15.5 19.5 13 22 13 22Z" stroke="white" stroke-width="2.3" stroke-linecap="round" stroke-linejoin="round"/>
</svg>
