<svg width="30" height="30" viewBox="0 0 30 30" fill="none" xmlns="http://www.w3.org/2000/svg">
<path d="M9.80029 15.65L13.0503 18.9L20.2003 11.75" stroke="white" stroke-width="2.3" stroke-linecap="round"/>
<path d="M15 28C16.7125 28 18.1671 26.8963 18.6915 25.3615C18.8243 24.9726 19.3475 24.7559 19.7164 24.9369C21.1724 25.6515 22.9815 25.4033 24.1924 24.1924C25.4033 22.9815 25.6514 21.1725 24.9369 19.7164C24.7559 19.3475 24.9726 18.8243 25.3614 18.6915C26.8963 18.1671 28 16.7125 28 15C28 13.2875 26.8963 11.8329 25.3615 11.3085C24.9726 11.1757 24.7559 10.6525 24.9369 10.2836C25.6515 8.82756 25.4033 7.01851 24.1924 5.80762C22.9815 4.59672 21.1725 4.34855 19.7164 5.0631C19.3475 5.24413 18.8243 5.02744 18.6915 4.63857C18.1671 3.10371 16.7125 2 15 2C13.2875 2 11.8329 3.1037 11.3085 4.63855C11.1757 5.02741 10.6525 5.24409 10.2836 5.06306C8.82756 4.34852 7.01851 4.59669 5.80762 5.80758C4.59672 7.01848 4.34855 8.82753 5.0631 10.2836C5.24413 10.6525 5.02744 11.1757 4.63857 11.3085C3.10371 11.8329 2 13.2875 2 15C2 16.7125 3.10369 18.1671 4.63855 18.6915C5.0274 18.8243 5.24409 19.3475 5.06306 19.7164C4.34852 21.1724 4.59669 22.9815 5.80759 24.1924C7.01848 25.4033 8.82753 25.6514 10.2836 24.9369C10.6525 24.7559 11.1757 24.9726 11.3085 25.3614C11.8329 26.8963 13.2875 28 15 28Z" stroke="white" stroke-width="2.3" stroke-linecap="round"/>
</svg>
