<svg width="20" height="20" viewBox="0 0 20 20" fill="none" xmlns="http://www.w3.org/2000/svg">
<path fill-rule="evenodd" clip-rule="evenodd" d="M11.1377 14.8436L11.4982 14.6944L11.4244 13.9641C11.4383 12.5695 12.5667 11.44 13.9603 11.4244C13.9641 11.4244 14.6944 11.4982 14.6944 11.4982L14.8436 11.1377C15.1314 10.439 15.2839 9.65883 15.2839 8.84313C15.2839 5.28863 12.3976 2.40234 8.84312 2.40234C5.28863 2.40234 2.40234 5.28863 2.40234 8.84313C2.40234 12.3976 5.28863 15.2839 8.84312 15.2839C9.65883 15.2839 10.439 15.1314 11.1377 14.8436ZM14.0057 10.3764H13.9891C11.995 10.3764 10.3764 11.995 10.3764 13.9891V14.0057C9.89672 14.1577 9.37879 14.2359 8.84312 14.2359C5.867 14.2359 3.45039 11.8192 3.45039 8.84313C3.45039 5.867 5.867 3.45039 8.84312 3.45039C11.8192 3.45039 14.2359 5.867 14.2359 8.84313C14.2359 9.37879 14.1577 9.89672 14.0057 10.3764Z" fill="white"/>
<path fill-rule="evenodd" clip-rule="evenodd" d="M14.2961 11.4559C15.5749 11.605 16.5514 12.6825 16.5514 13.9867C16.5514 15.4024 15.4024 16.5514 13.9867 16.5514C12.6825 16.5514 11.605 15.5749 11.4559 14.2961L10.415 14.4176C10.6258 16.222 12.1468 17.5994 13.9867 17.5994C15.9808 17.5994 17.5994 15.9808 17.5994 13.9867C17.5994 12.1468 16.222 10.6258 14.4176 10.415L14.2961 11.4559Z" fill="white"/>
<path fill-rule="evenodd" clip-rule="evenodd" d="M13.4619 12.4414V15.5301H14.51V12.4414H13.4619Z" fill="white"/>
<path fill-rule="evenodd" clip-rule="evenodd" d="M15.5246 13.4619H12.4414V14.51H15.5246V13.4619Z" fill="white"/>
<path fill-rule="evenodd" clip-rule="evenodd" d="M8.31543 3.18359V9.36375H11.9226V8.3157H9.36348V3.18359H8.31543Z" fill="white"/>
</svg>
