<svg width="20" height="20" viewBox="0 0 20 20" fill="none" xmlns="http://www.w3.org/2000/svg">
<path fill-rule="evenodd" clip-rule="evenodd" d="M9.21699 16.6331V13.5562C9.21699 11.4601 7.51277 9.75586 5.4166 9.75586C3.32043 9.75586 1.61621 11.4534 1.61621 13.5562V16.6387H2.66402V13.5562C2.66402 12.0333 3.89811 10.8037 5.4166 10.8037C6.93509 10.8037 8.16918 12.0378 8.16918 13.5562V16.6331H9.21699Z" fill="white"/>
<path fill-rule="evenodd" clip-rule="evenodd" d="M5.29984 5.77148C4.0591 5.77148 3.05176 6.77882 3.05176 8.01956C3.05176 9.2603 4.0591 10.2676 5.29984 10.2676C6.54058 10.2676 7.54792 9.2603 7.54792 8.01956C7.54792 6.77882 6.54058 5.77148 5.29984 5.77148ZM5.29984 6.81929C5.96234 6.81929 6.5001 7.35706 6.5001 8.01956C6.5001 8.68207 5.96234 9.21983 5.29984 9.21983C4.63733 9.21983 4.09957 8.68207 4.09957 8.01956C4.09957 7.35706 4.63733 6.81929 5.29984 6.81929Z" fill="white"/>
<path fill-rule="evenodd" clip-rule="evenodd" d="M18.382 16.6331V13.5562C18.382 11.4601 16.6778 9.75586 14.5816 9.75586C12.4855 9.75586 10.7812 11.4601 10.7812 13.5562V16.6387H11.8291V13.5562C11.8291 12.0378 13.0631 10.8037 14.5816 10.8037C16.1001 10.8037 17.3342 12.0378 17.3342 13.5562V16.6331H18.382Z" fill="white"/>
<path fill-rule="evenodd" clip-rule="evenodd" d="M14.4649 5.77148C13.2241 5.77148 12.2168 6.77882 12.2168 8.01956C12.2168 9.2603 13.2241 10.2676 14.4649 10.2676C15.7056 10.2676 16.713 9.2603 16.713 8.01956C16.713 6.77882 15.7056 5.77148 14.4649 5.77148ZM14.4649 6.81929C15.1274 6.81929 15.6651 7.35706 15.6651 8.01956C15.6651 8.68207 15.1274 9.21983 14.4649 9.21983C13.8024 9.21983 13.2646 8.68207 13.2646 8.01956C13.2646 7.35706 13.8024 6.81929 14.4649 6.81929Z" fill="white"/>
<path fill-rule="evenodd" clip-rule="evenodd" d="M10.002 3.35938C8.76124 3.35938 7.75391 4.36671 7.75391 5.60745C7.75391 6.84819 8.76124 7.85553 10.002 7.85553C11.2427 7.85553 12.2501 6.84819 12.2501 5.60745C12.2501 4.36671 11.2427 3.35938 10.002 3.35938ZM10.002 4.40719C10.6645 4.40719 11.2023 4.94495 11.2023 5.60745C11.2023 6.26996 10.6645 6.80772 10.002 6.80772C9.33948 6.80772 8.80172 6.26996 8.80172 5.60745C8.80172 4.94495 9.33948 4.40719 10.002 4.40719Z" fill="white"/>
</svg>
