<svg width="20" height="20" viewBox="0 0 20 20" fill="none" xmlns="http://www.w3.org/2000/svg">
<path fill-rule="evenodd" clip-rule="evenodd" d="M9.44347 13.9844V16.0892H4.17117V13.9844H3.06152V17.1988H10.5531V13.9844H9.44347Z" fill="white"/>
<path fill-rule="evenodd" clip-rule="evenodd" d="M15.8194 13.9844V16.0892H10.553V13.9844H9.44336V17.1988H16.9291V13.9844H15.8194Z" fill="white"/>
<path fill-rule="evenodd" clip-rule="evenodd" d="M9.44347 11.3281V13.4329H4.17117V11.3281H3.06152V14.5426H10.5531V11.3281H9.44347Z" fill="white"/>
<path fill-rule="evenodd" clip-rule="evenodd" d="M15.8194 11.3281V13.4329H10.553V11.3281H9.44336V14.5426H16.9291V11.3281H15.8194Z" fill="white"/>
<path fill-rule="evenodd" clip-rule="evenodd" d="M9.44347 8.66699V10.7718H4.17117V8.66699H3.06152V11.8815H10.5531V8.66699H9.44347Z" fill="white"/>
<path fill-rule="evenodd" clip-rule="evenodd" d="M16.935 11.8796V8.11035H9.44336V11.8796H16.935ZM15.8253 9.22V10.77H10.553V9.22H15.8253Z" fill="white"/>
<path fill-rule="evenodd" clip-rule="evenodd" d="M9.44347 6.00586V8.11067H4.17117V6.00586H3.06152V9.22032H10.5531V6.00586H9.44347Z" fill="white"/>
<path fill-rule="evenodd" clip-rule="evenodd" d="M10.5531 6.56714V2.79785H3.06152V6.56714H10.5531ZM9.44347 3.9075V5.45749H4.17117V3.9075H9.44347Z" fill="white"/>
</svg>
