<svg xmlns="http://www.w3.org/2000/svg" viewBox="0 0 28 20" fill="currentColor" fill-rule="evenodd" stroke-linejoin="round" stroke-miterlimit="2" xmlns:v="https://vecta.io/nano"><path d="M0 19.333v-1.147c1.682-.983 2.971-2.125 3.866-3.424s1.42-2.572 1.573-3.817c-1.551-.24-2.753-.885-3.604-1.933S.557 6.838.557 5.636c0-1.508.551-2.823 1.655-3.949S4.686 0 6.324 0c1.901 0 3.369.683 4.407 2.048s1.557 2.9 1.557 4.604c0 1.573-.415 3.222-1.245 4.948s-2.157 3.293-3.981 4.702S2.884 18.721 0 19.333zm14.712 0v-1.147c1.726-1.027 3.026-2.185 3.9-3.473s1.365-2.545 1.474-3.768c-1.551-.24-2.747-.885-3.588-1.933s-1.261-2.174-1.261-3.375c0-.983.246-1.912.737-2.786A5.47 5.47 0 0 1 18.038.77c.885-.513 1.851-.77 2.9-.77 1.333 0 2.452.339 3.358 1.016s1.584 1.518 2.032 2.523S27 5.581 27 6.652c0 1.573-.415 3.222-1.245 4.948s-2.151 3.288-3.965 4.686-4.172 2.414-7.078 3.047z" fill-rule="nonzero"/></svg>