<svg viewBox="0 0 613 113" version="1.1" xmlns="http://www.w3.org/2000/svg" xmlns:xlink="http://www.w3.org/1999/xlink" xml:space="preserve" xmlns:serif="http://www.serif.com/" fill="currentColor" style="fill-rule:evenodd;clip-rule:evenodd;stroke-linejoin:round;stroke-miterlimit:2;">
    <g transform="matrix(3.26068,0,0,3.26068,-387.026,-404.143)">
        <path d="M160.915,150.867L160.915,146.18C161.765,146.893 162.688,147.427 163.684,147.784C164.68,148.14 165.686,148.318 166.701,148.318C167.297,148.318 167.817,148.265 168.261,148.157C168.706,148.05 169.077,147.901 169.375,147.71C169.672,147.52 169.895,147.295 170.041,147.037C170.188,146.778 170.261,146.497 170.261,146.194C170.261,145.784 170.144,145.418 169.909,145.096C169.675,144.773 169.355,144.476 168.95,144.202C168.544,143.929 168.064,143.665 167.507,143.411C166.95,143.157 166.35,142.898 165.705,142.635C164.065,141.951 162.841,141.116 162.036,140.13C161.23,139.144 160.827,137.952 160.827,136.556C160.827,135.462 161.047,134.522 161.486,133.736C161.926,132.95 162.524,132.303 163.281,131.795C164.038,131.287 164.914,130.914 165.91,130.674C166.906,130.435 167.961,130.315 169.074,130.315C170.168,130.315 171.137,130.381 171.982,130.513C172.827,130.645 173.606,130.848 174.318,131.121L174.318,135.501C173.967,135.257 173.584,135.042 173.169,134.856C172.753,134.671 172.326,134.517 171.887,134.395C171.447,134.273 171.01,134.183 170.576,134.124C170.141,134.065 169.729,134.036 169.338,134.036C168.801,134.036 168.313,134.087 167.873,134.19C167.434,134.292 167.063,134.437 166.76,134.622C166.457,134.808 166.223,135.03 166.057,135.289C165.891,135.547 165.808,135.838 165.808,136.16C165.808,136.512 165.9,136.827 166.086,137.105C166.272,137.383 166.535,137.647 166.877,137.896C167.219,138.145 167.634,138.389 168.122,138.628C168.61,138.868 169.162,139.114 169.777,139.368C170.617,139.72 171.372,140.093 172.041,140.489C172.71,140.884 173.283,141.331 173.762,141.829C174.24,142.327 174.607,142.896 174.86,143.536C175.114,144.175 175.241,144.92 175.241,145.77C175.241,146.941 175.019,147.925 174.575,148.721C174.13,149.517 173.527,150.162 172.766,150.655C172.004,151.148 171.118,151.502 170.107,151.717C169.096,151.932 168.029,152.039 166.906,152.039C165.754,152.039 164.658,151.941 163.618,151.746C162.578,151.551 161.677,151.258 160.915,150.867Z" style="fill-rule:nonzero;"/>
        <path d="M193.757,150.926C192.224,151.668 190.222,152.039 187.751,152.039C184.528,152.039 181.994,151.092 180.148,149.197C178.303,147.303 177.38,144.778 177.38,141.624C177.38,138.265 178.418,135.54 180.493,133.45C182.568,131.36 185.261,130.315 188.571,130.315C190.622,130.315 192.351,130.574 193.757,131.092L193.757,135.647C192.351,134.808 190.749,134.388 188.952,134.388C186.98,134.388 185.388,135.008 184.177,136.248C182.966,137.488 182.36,139.168 182.36,141.287C182.36,143.318 182.932,144.937 184.074,146.143C185.217,147.349 186.755,147.952 188.689,147.952C190.534,147.952 192.224,147.503 193.757,146.605L193.757,150.926Z" style="fill-rule:nonzero;"/>
        <path d="M215.891,151.673L210.734,151.673L209.24,147L201.77,147L200.29,151.673L195.163,151.673L202.81,130.667L208.42,130.667L215.891,151.673ZM208.156,143.367L205.9,136.307C205.734,135.779 205.617,135.149 205.549,134.417L205.432,134.417C205.383,135.032 205.261,135.643 205.065,136.248L202.78,143.367L208.156,143.367Z" style="fill-rule:nonzero;"/>
        <path d="M230.656,134.52L223.244,134.52L223.244,139.676L230.056,139.676L230.056,143.514L223.244,143.514L223.244,151.673L218.513,151.673L218.513,130.667L230.656,130.667L230.656,134.52Z" style="fill-rule:nonzero;"/>
        <path d="M246.257,134.52L238.845,134.52L238.845,139.676L245.656,139.676L245.656,143.514L238.845,143.514L238.845,151.673L234.113,151.673L234.113,130.667L246.257,130.667L246.257,134.52Z" style="fill-rule:nonzero;"/>
        <path d="M258.591,152.039C255.583,152.039 253.132,151.06 251.237,149.102C249.343,147.144 248.396,144.593 248.396,141.448C248.396,138.128 249.357,135.442 251.281,133.392C253.205,131.341 255.754,130.315 258.928,130.315C261.926,130.315 264.35,131.297 266.201,133.26C268.051,135.223 268.977,137.811 268.977,141.023C268.977,144.324 268.017,146.985 266.098,149.007C264.179,151.028 261.677,152.039 258.591,152.039ZM258.796,134.388C257.136,134.388 255.817,135.01 254.841,136.255C253.864,137.5 253.376,139.148 253.376,141.199C253.376,143.279 253.864,144.925 254.841,146.136C255.817,147.347 257.097,147.952 258.679,147.952C260.31,147.952 261.604,147.364 262.561,146.187C263.518,145.01 263.996,143.377 263.996,141.287C263.996,139.109 263.532,137.415 262.605,136.204C261.677,134.993 260.407,134.388 258.796,134.388Z" style="fill-rule:nonzero;"/>
        <path d="M284.973,151.673L272.463,151.673L272.463,130.667L277.194,130.667L277.194,147.835L284.973,147.835L284.973,151.673Z" style="fill-rule:nonzero;"/>
        <path d="M287.8,151.673L287.8,130.667L295.241,130.667C302.702,130.667 306.433,134.08 306.433,140.906C306.433,144.178 305.415,146.79 303.378,148.743C301.342,150.696 298.63,151.673 295.241,151.673L287.8,151.673ZM292.531,134.52L292.531,147.835L294.875,147.835C296.926,147.835 298.535,147.22 299.702,145.989C300.869,144.759 301.452,143.084 301.452,140.965C301.452,138.963 300.874,137.388 299.716,136.241C298.559,135.093 296.936,134.52 294.846,134.52L292.531,134.52Z" style="fill-rule:nonzero;"/>
    </g>
    <g id="scaffold-icon.afdesign" transform="matrix(0.2741,0,0,0.2741,42.5421,56.1906)">
        <g transform="matrix(1,0,0,1,-155.206,-205)">
            <clipPath id="_clip1">
                <rect x="0" y="0" width="310.413" height="410"/>
            </clipPath>
            <g clip-path="url(#_clip1)">
                <g transform="matrix(1,0,0,1,-244.794,-78.7033)">
                    <path d="M549.794,78.703L249.794,78.703C247.032,78.703 244.794,80.942 244.794,83.703L244.794,283.703C244.794,286.465 247.032,288.703 249.794,288.703L344.794,288.703L344.794,378.703L249.794,378.703C247.032,378.703 244.794,380.942 244.794,383.703L244.794,483.703C244.794,486.465 247.032,488.703 249.794,488.703L550.206,488.703C552.228,488.703 554.052,487.485 554.826,485.617C555.354,484.341 555.322,482.934 554.794,481.715L554.794,383.703L554.794,283.697C554.794,280.935 552.555,278.697 549.794,278.697L451.871,278.697L361.872,188.703L549.794,188.703C552.555,188.703 554.794,186.465 554.794,183.703L554.794,83.703C554.794,82.95 554.627,82.235 554.328,81.595L554.301,81.536L554.28,81.494L554.272,81.478L554.264,81.462L554.247,81.427L554.229,81.393L554.216,81.369L554.203,81.345L554.19,81.32L554.176,81.294L554.158,81.261L554.141,81.232L554.131,81.214L554.119,81.194L554.096,81.154L554.076,81.122L554.07,81.111L554.061,81.096L554.031,81.048L554.01,81.015L554.006,81.008L553.999,80.997L553.964,80.943L553.943,80.912L553.894,80.84L553.873,80.812L553.821,80.738L553.8,80.712L553.795,80.705L553.745,80.638L553.727,80.616L553.72,80.608L553.666,80.539L553.652,80.523L553.641,80.51L553.584,80.442L553.5,80.347L553.495,80.341L553.412,80.253L553.394,80.234L553.329,80.168L553.322,80.161L553.293,80.133L553.243,80.084L553.23,80.071L553.194,80.038L553.156,80.002L553.147,79.995L553.135,79.984L553.095,79.948L553.066,79.923L553.057,79.915L553.039,79.9L552.995,79.863L552.974,79.845L552.965,79.837L552.942,79.818L552.896,79.782L552.881,79.77L552.872,79.763L552.843,79.74L552.797,79.706L552.785,79.697L552.777,79.69L552.742,79.664L552.698,79.633L552.688,79.626L552.679,79.62L552.64,79.592L552.598,79.564L552.589,79.557L552.58,79.551L552.537,79.522L552.498,79.497L552.489,79.491L552.476,79.483L552.432,79.455L552.398,79.434L552.386,79.427L552.369,79.417L552.326,79.391L552.297,79.374L552.283,79.366L552.258,79.352L552.219,79.33L552.196,79.317L552.177,79.307L552.142,79.288L552.11,79.271L552.094,79.263L552.07,79.25L552.021,79.226L552.001,79.216L551.991,79.211L551.961,79.196L551.896,79.166L551.888,79.162C551.251,78.867 550.542,78.703 549.794,78.703ZM462.271,388.703L544.794,471.22L544.794,388.703L462.271,388.703ZM354.794,378.697L438.128,378.697L354.794,295.309L354.794,378.697ZM544.794,296.193L462.29,378.697L544.794,378.697L544.794,296.193ZM454.794,288.697L454.794,372.051L538.148,288.697L454.794,288.697ZM444.794,371.221L444.794,288.697L362.323,288.697L444.794,371.221ZM254.794,278.703L338.199,278.703L254.794,195.244L254.794,278.703ZM354.794,195.767L354.794,278.69L437.722,278.69L354.794,195.767ZM262.394,188.703L344.794,271.156L344.794,188.703L262.394,188.703ZM354.794,178.703L438.106,178.703L354.794,95.739L354.794,178.703ZM544.794,95.809L462.236,178.703L544.794,178.703L544.794,95.809ZM262.354,178.703L344.794,178.703L344.794,95.82L262.354,178.703ZM254.794,172.124L337.768,88.703L254.794,88.703L254.794,172.124ZM454.794,88.703L454.794,172.005L537.757,88.703L454.794,88.703ZM444.794,171.251L444.794,88.703L361.901,88.703L444.794,171.251Z"/>
                </g>
            </g>
        </g>
    </g>
</svg>
