<?xml version="1.0" standalone="no"?>
<!DOCTYPE svg PUBLIC "-//W3C//DTD SVG 20010904//EN"
 "http://www.w3.org/TR/2001/REC-SVG-20010904/DTD/svg10.dtd">
<svg version="1.0" xmlns="http://www.w3.org/2000/svg"
 width="820.000000pt" height="820.000000pt" viewBox="0 0 820.000000 820.000000"
 preserveAspectRatio="xMidYMid meet">
<metadata>
Created by potrace 1.14, written by Peter Selinger 2001-2017
</metadata>
<g transform="translate(0.000000,820.000000) scale(0.100000,-0.100000)"
fill="#000000" stroke="none">
<path d="M1041 8186 c-53 -30 -50 92 -50 -2091 0 -1580 2 -2033 12 -2046 25
-32 63 -49 113 -48 27 0 59 -2 71 -5 13 -3 25 -1 28 3 2 5 22 5 42 2 21 -4 52
-4 68 -1 17 3 50 3 75 -1 25 -4 47 -3 48 2 2 5 8 7 13 4 4 -3 32 -5 61 -5 29
0 69 1 88 1 19 0 64 0 100 0 36 1 76 1 90 0 102 -6 210 -5 210 2 0 5 4 5 10 2
5 -3 35 -5 67 -5 32 0 76 0 98 -1 22 -1 46 -1 53 0 6 1 18 2 25 2 6 1 24 -1
39 -4 15 -3 30 -1 34 4 3 5 9 7 13 5 4 -3 23 -6 42 -6 44 -1 148 -2 177 -1 27
0 66 1 90 0 9 0 39 1 65 1 26 1 57 -2 67 -5 11 -4 20 -2 20 3 0 5 19 6 43 3
23 -4 56 -4 72 -1 17 3 38 4 48 2 16 -4 17 -55 17 -901 0 -494 -2 -900 -5
-903 -3 -3 -26 -2 -50 2 -25 4 -48 3 -51 -2 -3 -4 -9 -6 -14 -3 -9 6 -148 7
-205 2 -16 -1 -45 1 -63 4 -17 4 -34 3 -37 -1 -3 -4 -20 -5 -37 -1 -18 4 -42
6 -53 5 -52 -6 -252 -8 -305 -4 -14 1 -29 2 -35 2 -97 -2 -185 -1 -205 1 -14
2 -40 0 -57 -4 -18 -4 -49 -3 -68 1 -19 4 -37 4 -40 0 -3 -4 -20 -5 -37 -1
-33 7 -92 5 -115 -4 -7 -2 -15 0 -18 4 -3 5 -21 5 -40 1 -19 -4 -51 -4 -70 0
-19 4 -37 4 -40 0 -3 -4 -20 -5 -37 -1 -18 4 -42 6 -53 5 -37 -4 -90 -6 -170
-5 -130 1 -163 -9 -184 -56 -8 -17 -11 -340 -11 -1044 0 -935 1 -1023 17
-1049 9 -16 27 -33 40 -39 34 -15 6062 -16 6096 0 12 6 29 19 35 30 10 15 12
466 12 2050 0 1770 -2 2034 -15 2059 -18 35 -56 50 -125 50 -19 0 -43 0 -52 0
-10 0 -25 0 -33 0 -8 0 -22 0 -30 0 -8 0 -22 0 -30 0 -8 0 -22 0 -30 0 -8 0
-22 0 -30 0 -8 0 -22 0 -30 0 -8 -1 -40 -1 -70 -1 -30 0 -62 0 -70 1 -8 0 -22
0 -30 0 -8 0 -22 0 -30 0 -8 0 -22 0 -30 0 -8 0 -22 0 -30 0 -8 0 -22 0 -30 0
-8 0 -21 0 -27 -1 -7 0 -41 1 -75 2 -34 2 -65 0 -68 -3 -4 -3 -19 -2 -35 2
-16 4 -31 6 -34 3 -7 -7 -101 -7 -112 0 -6 3 -16 2 -24 -3 -7 -4 -24 -4 -36 0
-14 6 -26 5 -29 0 -3 -5 -18 -5 -35 0 -19 5 -30 5 -30 -1 0 -6 -5 -7 -10 -4
-6 4 -39 6 -73 6 -64 -1 -80 -1 -122 -1 -14 0 -40 -1 -57 -1 -18 0 -46 0 -63
0 -61 1 -70 1 -90 1 -11 -1 -26 -1 -32 -1 -13 1 -32 1 -58 1 -45 -1 -133 -1
-150 0 -11 1 -27 1 -35 1 -54 -2 -114 0 -121 5 -5 3 -9 1 -9 -4 0 -13 -65 2
-86 18 -8 7 -412 410 -898 896 -734 734 -879 884 -857 884 14 0 33 0 41 1 11
0 462 1 560 0 30 0 305 0 320 0 20 0 541 0 560 0 16 0 214 0 240 0 8 0 62 0
120 0 58 0 112 0 120 0 13 0 516 0 560 0 30 0 305 0 320 0 20 0 541 0 560 0 8
0 65 0 125 0 61 0 126 -1 145 -2 53 -2 61 -1 108 15 54 18 52 -19 52 1086 0
1109 2 1062 -55 1088 -40 19 -6060 17 -6094 -2z m1236 -185 c493 1 555 0 561
-6 2 -2 -175 -183 -393 -402 -843 -847 -1248 -1253 -1251 -1253 -2 0 -4 374
-4 830 l0 830 296 0 c163 -1 299 1 302 4 2 3 8 3 13 1 4 -3 218 -5 476 -4z
m1920 0 c257 0 475 0 483 0 8 0 81 0 163 0 l147 0 0 -821 c0 -654 -3 -820 -12
-814 -7 4 -345 339 -751 743 -937 934 -887 884 -887 888 0 2 81 3 181 3 100
-1 183 1 186 4 3 3 9 3 14 1 4 -3 218 -5 476 -4z m1920 0 c257 0 475 0 483 0
8 0 68 0 133 0 l117 0 -827 -831 c-455 -456 -828 -830 -830 -830 -2 0 -3 374
-3 830 l0 830 216 0 c119 -1 219 1 221 4 3 3 9 3 14 1 4 -3 218 -5 476 -4z
m-3127 -982 c0 -542 -3 -828 -10 -824 -8 5 -61 6 -175 4 -11 0 -58 0 -105 1
-47 1 -88 1 -92 0 -10 -2 -106 -2 -115 0 -5 1 -42 1 -83 0 -98 -2 -92 -2 -190
0 -47 1 -88 1 -92 0 -11 -2 -106 -2 -115 0 -8 2 -128 1 -141 -1 -4 -1 -11 0
-17 1 -5 1 -44 1 -85 0 -41 -1 -84 -1 -95 -1 -140 2 -188 1 -197 -5 -7 -4 -8
-3 -4 4 5 9 0 9 -17 3 -14 -6 -28 -7 -31 -4 -3 4 -22 6 -42 5 l-37 -1 19 21
c41 46 1616 1628 1621 1628 2 0 3 -374 3 -831z m1050 -6 l815 -813 -55 0 c-30
-1 -64 -1 -75 -1 -11 0 -58 0 -105 1 -47 1 -89 1 -95 0 -5 -1 -23 -2 -40 -1
-118 3 -187 2 -191 -2 -3 -3 -19 -1 -35 3 -16 5 -31 5 -34 0 -3 -5 -19 -5 -35
0 -19 5 -30 5 -30 -1 0 -6 -5 -7 -10 -4 -13 8 -169 9 -176 2 -3 -3 -19 -1 -35
3 -16 5 -31 5 -34 0 -3 -5 -18 -5 -33 -1 -15 4 -36 6 -47 5 -39 -5 -81 -6
-165 -4 -47 1 -88 1 -92 0 -10 -2 -106 -2 -115 0 -5 1 -42 1 -83 0 -90 -2
-100 -2 -145 0 l-35 2 0 825 c0 779 1 825 17 812 10 -8 384 -380 833 -826z
m2950 12 l0 -824 -42 -1 c-24 0 -61 0 -83 -1 -22 0 -44 0 -50 1 -5 1 -44 1
-85 0 -98 -2 -92 -2 -190 0 -47 1 -89 1 -95 0 -5 -1 -23 -2 -40 -1 -118 3
-187 2 -191 -2 -3 -3 -19 -1 -35 3 -16 5 -31 5 -34 0 -3 -5 -19 -5 -35 0 -19
5 -30 5 -30 -1 0 -6 -5 -7 -10 -4 -13 8 -169 9 -176 2 -3 -3 -19 -1 -35 3 -16
5 -31 5 -34 0 -3 -5 -18 -5 -33 -1 -15 4 -36 6 -47 5 -33 -4 -75 -5 -168 -4
-48 0 -93 -2 -99 -6 -7 -4 -8 -3 -4 4 5 9 0 9 -17 3 -14 -6 -27 -7 -30 -4 -3
3 -22 5 -41 5 -20 0 -36 2 -36 5 0 3 325 331 723 730 935 938 910 913 914 913
2 0 3 -371 3 -825z m-5307 -1025 c56 0 109 1 117 1 8 0 44 0 80 0 36 -1 72 -1
80 0 8 0 62 0 120 0 58 0 112 0 120 0 8 0 62 0 120 0 58 0 112 0 120 0 8 0
117 0 241 -1 124 0 230 0 235 1 5 1 24 1 42 0 l32 -1 0 -820 c0 -451 -2 -820
-5 -820 -4 0 -1580 1575 -1620 1619 l-19 22 102 -2 c57 -1 106 1 109 4 3 4 10
4 15 1 4 -3 54 -5 111 -4z m345 -970 c500 -500 824 -831 816 -834 -7 -3 -16
-1 -19 4 -3 5 -15 6 -29 0 -12 -4 -29 -4 -36 0 -8 5 -21 5 -30 0 -9 -5 -22 -5
-30 0 -8 5 -21 5 -31 0 -9 -5 -18 -7 -21 -5 -7 8 -126 10 -133 3 -4 -3 -19 -2
-35 2 -16 4 -31 6 -34 3 -7 -7 -101 -7 -112 0 -6 3 -16 2 -24 -3 -7 -4 -24 -4
-36 0 -14 6 -26 5 -29 0 -3 -5 -18 -5 -35 0 -19 5 -30 5 -30 -1 0 -6 -5 -7
-10 -4 -6 4 -39 6 -73 6 -64 -1 -80 -1 -122 -1 -14 0 -40 -1 -57 -1 -18 0 -46
0 -63 0 -16 1 -38 1 -47 1 -10 0 -24 0 -30 1 -7 0 -22 0 -33 -1 -11 0 -28 0
-37 0 -10 0 -25 0 -33 0 -8 0 -40 0 -70 0 -30 0 -61 -1 -67 -1 -7 0 -22 0 -33
1 -11 0 -42 1 -70 0 -27 0 -58 0 -67 0 -10 0 -25 0 -33 0 -23 -1 -63 0 -82 0
-10 0 -28 0 -40 0 l-23 0 0 830 c0 457 2 830 5 830 2 0 378 -373 833 -830z
m1991 -1 c452 -451 821 -822 821 -825 0 -3 -4 -3 -8 0 -4 2 -14 1 -21 -3 -7
-5 -28 -5 -47 -1 -19 5 -37 4 -40 -1 -3 -6 -12 -6 -21 0 -9 5 -29 5 -44 1 -15
-5 -30 -6 -33 -3 -6 7 -195 7 -202 0 -3 -3 -18 -2 -32 2 -15 5 -36 5 -46 1
-11 -4 -37 -3 -58 0 -21 4 -41 3 -44 -1 -3 -5 -13 -5 -23 1 -10 5 -21 7 -23 4
-5 -4 -51 -5 -191 -3 -37 1 -71 -1 -74 -4 -3 -3 -15 -2 -27 2 -11 5 -30 5 -40
1 -11 -3 -37 -3 -58 0 -21 4 -41 3 -44 -1 -3 -5 -10 -7 -15 -3 -9 5 -83 8
-104 4 -5 -1 -14 -2 -18 -1 -13 2 -171 3 -182 1 -5 -1 -14 -1 -20 0 -13 2 -87
2 -100 0 -5 -1 -14 -2 -19 -1 -4 1 -33 2 -62 2 l-54 1 0 824 c0 453 2 824 4
824 3 0 374 -369 825 -821z m-584 -1032 c17 2 35 4 40 4 6 1 24 0 40 0 17 -1
54 -1 83 -1 29 1 62 -2 72 -5 11 -4 20 -2 20 3 0 5 19 6 43 3 23 -4 56 -4 72
-1 17 3 50 3 75 -1 25 -4 47 -3 48 2 2 5 7 7 11 5 8 -5 39 -7 146 -7 60 0 74
0 98 2 6 1 24 -1 39 -4 15 -3 30 -1 34 4 3 5 9 7 13 5 4 -3 23 -6 42 -6 45 -1
151 -1 167 -1 6 1 20 1 30 1 91 1 149 2 157 1 6 0 46 0 90 0 80 0 91 0 151 -1
18 0 36 0 40 1 5 1 17 1 27 0 16 -1 17 -47 17 -821 0 -451 -2 -820 -5 -820 -3
0 -372 367 -821 816 -577 577 -812 819 -803 825 7 4 20 4 28 0 9 -3 30 -5 46
-4z m1927 3 c29 0 67 1 83 1 17 1 41 0 55 -1 14 -1 54 -1 90 -1 36 1 109 0
163 -1 53 -2 97 1 97 5 0 5 4 6 8 3 9 -5 39 -7 147 -7 60 0 74 0 98 2 6 1 24
-1 39 -4 15 -3 30 -1 34 4 3 5 9 7 13 5 4 -3 23 -6 42 -6 44 -1 148 -2 177 -1
27 0 66 1 90 0 9 0 39 1 65 1 26 1 57 -2 67 -5 11 -4 20 -2 20 3 0 5 19 6 43
2 23 -3 56 -3 72 0 17 3 43 3 58 0 27 -5 -20 -53 -795 -827 -453 -453 -826
-826 -830 -830 -5 -3 -8 368 -8 827 l0 833 50 -5 c28 -3 50 -1 50 4 0 5 4 6
10 3 5 -3 33 -5 62 -5z m-1355 -950 c445 -446 808 -812 805 -814 -2 -2 6 -7
17 -11 12 -3 21 -11 21 -16 0 -8 -42 -14 -65 -9 -5 1 -36 1 -67 1 -65 -2 -77
-2 -168 -2 -84 0 -72 0 -170 0 -47 1 -98 0 -115 -2 -16 -1 -45 1 -63 4 -17 4
-34 3 -37 -1 -3 -4 -20 -5 -37 -1 -18 4 -42 6 -53 5 -44 -5 -95 -6 -192 -4
-56 1 -106 -1 -111 -3 -4 -3 -25 -2 -45 3 -20 4 -39 4 -42 0 -3 -4 -20 -5 -37
-1 -33 7 -92 5 -115 -4 -7 -2 -15 0 -18 4 -3 5 -21 5 -40 1 -19 -4 -51 -4 -70
0 -19 4 -37 4 -40 0 -3 -4 -20 -5 -37 -1 -33 7 -47 7 -103 0 l-30 -4 -3 833
c-1 457 0 832 2 832 2 0 368 -365 813 -810z m2983 -29 c0 -772 -1 -820 -17
-823 -10 -2 -33 -1 -51 3 -17 4 -34 3 -37 -1 -3 -4 -20 -5 -37 -1 -33 7 -92 5
-115 -4 -7 -2 -15 0 -18 4 -3 5 -21 5 -40 1 -19 -4 -51 -4 -70 0 -19 4 -37 4
-40 0 -3 -4 -20 -5 -37 -1 -18 4 -42 6 -53 5 -43 -5 -94 -6 -175 -5 -47 0 -98
0 -115 -2 -16 -1 -45 1 -63 4 -17 4 -34 3 -37 -1 -3 -4 -20 -5 -37 -1 -18 4
-42 6 -53 5 -36 -4 -89 -6 -160 -5 -38 0 -74 0 -80 0 -5 0 -48 0 -95 0 -47 0
-103 1 -125 1 -135 -1 -185 1 -185 5 0 7 1624 1633 1633 1634 4 1 7 -368 7
-818z m-1268 -1022 c79 0 148 1 153 2 6 1 14 1 18 0 12 -2 289 -2 302 0 6 1
14 1 18 0 12 -2 260 -2 272 0 6 1 14 1 19 0 12 -3 157 -3 171 -1 6 1 24 1 41
0 101 -5 244 -4 244 2 0 4 7 5 15 2 13 -5 15 -106 15 -825 0 -450 -2 -819 -5
-819 -7 0 -1635 1629 -1635 1636 0 3 45 4 100 3 56 -1 103 1 107 4 3 4 9 4 14
1 4 -2 72 -5 151 -5z"/>
</g>
</svg>
